<?xml version="1.0" standalone="no"?>
<!DOCTYPE svg PUBLIC "-//W3C//DTD SVG 20010904//EN"
 "http://www.w3.org/TR/2001/REC-SVG-20010904/DTD/svg10.dtd">
<svg version="1.0" xmlns="http://www.w3.org/2000/svg"
 width="16.000000pt" height="16.000000pt" viewBox="0 0 16.000000 16.000000"
 preserveAspectRatio="xMidYMid meet">
<metadata>
Created by potrace 1.11, written by Peter Selinger 2001-2013
</metadata>
<g transform="translate(0.000000,16.000000) scale(0.003931,-0.003931)"
fill="#000000" stroke="none">
<path d="M1915 3583 c-113 -13 -216 -36 -204 -45 10 -7 4 -8 -19 -4 -20 4 -31
2 -27 -4 3 -6 -2 -10 -13 -10 -29 0 -159 -47 -199 -71 -30 -19 -73 -71 -73
-90 0 -3 41 9 92 28 89 34 243 73 283 72 11 0 -25 -11 -79 -25 -54 -13 -146
-43 -203 -66 -115 -45 -116 -47 -88 -129 31 -87 29 -87 151 -22 60 32 145 72
189 90 50 20 79 37 77 45 -18 67 -18 108 0 137 19 30 107 81 139 81 10 0 21 5
24 10 3 6 0 9 -7 9 -7 -1 -26 -4 -43 -6z m-118 -39 c-3 -3 -12 -4 -19 -1 -8 3
-5 6 6 6 11 1 17 -2 13 -5z"/>
<path d="M1961 3565 c-60 -19 -101 -60 -101 -102 0 -48 25 -93 53 -94 19 0 19
-1 4 -7 -15 -7 -14 -11 15 -38 57 -53 90 -75 102 -66 20 16 126 74 126 69 0
-2 -27 -21 -60 -41 -33 -21 -60 -39 -60 -41 0 -6 128 -70 156 -79 18 -5 27 2
54 44 43 67 50 64 11 -5 l-31 -54 78 -25 c42 -13 90 -26 106 -28 l30 -3 -1 65
-1 65 10 -67 c8 -55 14 -67 32 -72 26 -7 166 -8 166 -1 0 3 -18 35 -39 70 -22
36 -38 65 -35 65 2 0 25 -32 51 -71 l47 -71 40 6 c69 12 156 61 156 90 0 6
-14 24 -32 39 l-33 29 32 -21 c41 -27 47 -26 39 5 -10 37 -35 72 -57 79 -11 4
-17 10 -14 15 8 13 -71 71 -131 95 -29 12 -51 24 -49 27 11 11 -123 60 -144
53 -16 -5 -19 -3 -15 8 4 10 -8 18 -43 26 -26 7 -56 14 -67 18 -13 3 -16 1
-11 -7 4 -7 -2 -6 -16 3 -54 35 -282 48 -368 22z m32 -92 c-13 -2 -33 -2 -45
0 -13 2 -3 4 22 4 25 0 35 -2 23 -4z m24 -89 c-3 -3 -12 -4 -19 -1 -8 3 -5 6
6 6 11 1 17 -2 13 -5z m-44 -11 c-7 -2 -19 -2 -25 0 -7 3 -2 5 12 5 14 0 19
-2 13 -5z m825 -245 c8 -17 -6 -6 -58 49 l-55 57 55 -49 c30 -27 57 -53 58
-57z"/>
<path d="M1269 3353 c-94 -65 -243 -202 -266 -246 -11 -23 2 -15 62 38 71 61
218 165 235 165 4 0 21 23 38 50 17 28 28 50 24 50 -5 0 -46 -26 -93 -57z"/>
<path d="M1709 3277 c-47 -24 -125 -67 -172 -97 l-87 -54 38 -39 c43 -45 146
-127 159 -127 5 0 47 34 94 76 46 42 112 97 146 122 l62 46 -62 58 c-34 31
-69 57 -77 57 -8 1 -54 -19 -101 -42z"/>
<path d="M1230 3242 c-87 -58 -223 -173 -244 -205 -11 -17 -13 -33 -6 -69 8
-41 54 -148 64 -148 2 0 43 41 92 91 69 70 178 166 222 195 2 1 -6 20 -17 43
-12 22 -24 63 -29 92 l-7 51 -75 -50z"/>
<path d="M2930 3193 c12 -37 37 -68 104 -133 49 -47 110 -116 137 -154 39 -55
49 -64 49 -45 0 71 -121 237 -245 338 -27 23 -52 41 -56 41 -3 0 1 -21 11 -47z"/>
<path d="M1826 3059 c-126 -125 -130 -131 -111 -146 26 -20 259 -133 273 -133
6 0 21 19 33 43 12 23 51 93 86 155 36 62 63 114 62 115 -57 30 -198 97 -203
97 -5 0 -67 -59 -140 -131z"/>
<path d="M2936 3112 c-4 -10 -17 -29 -31 -42 l-24 -23 48 -61 c54 -68 125
-177 163 -248 l24 -46 33 26 c34 26 76 102 62 112 -4 3 -21 25 -38 51 -36 52
-134 161 -191 214 -36 32 -41 34 -46 17z"/>
<path d="M1378 3073 c-1 -4 -36 -37 -76 -73 -75 -66 -212 -219 -212 -238 0
-13 110 -115 184 -169 l58 -43 50 72 c60 87 96 134 160 210 l48 56 -65 52
c-35 28 -82 71 -104 96 -21 25 -41 41 -43 37z"/>
<path d="M2187 3053 c-16 -30 -127 -292 -127 -298 0 -14 344 -105 354 -94 8 8
26 208 26 285 0 66 -2 74 -19 74 -17 0 -163 39 -203 55 -12 5 -21 -2 -31 -22z"/>
<path d="M913 3003 c-68 -99 -69 -109 -2 -23 32 40 54 80 45 80 -2 0 -21 -26
-43 -57z"/>
<path d="M2840 3030 c-8 -5 -39 -14 -67 -20 -29 -6 -53 -15 -53 -19 0 -5 15
-41 34 -82 36 -78 96 -250 96 -275 0 -10 7 -13 23 -10 12 3 40 8 62 11 60 9
145 37 145 48 0 35 -197 357 -218 357 -4 0 -14 -5 -22 -10z"/>
<path d="M2474 2956 c3 -28 6 -110 6 -182 l0 -131 43 -7 c23 -3 97 -9 164 -13
l122 -6 -29 109 c-29 110 -77 254 -89 265 -3 4 -55 9 -115 11 l-108 5 6 -51z"/>
<path d="M878 2900 c-44 -63 -89 -145 -121 -223 l-16 -37 72 -36 c42 -22 73
-32 75 -26 2 6 27 48 55 94 l52 83 -27 54 c-16 30 -28 66 -29 80 -1 14 -4 37
-8 51 -6 23 -9 21 -53 -40z"/>
<path d="M3246 2835 c8 -64 94 -235 94 -186 0 12 -53 138 -78 186 l-21 40 5
-40z"/>
<path d="M1586 2778 c-30 -40 -82 -118 -116 -173 -56 -93 -59 -101 -43 -113
24 -18 335 -172 348 -172 6 0 19 21 29 48 10 26 49 111 86 188 l67 142 -66 26
c-36 15 -105 49 -153 77 -49 27 -90 49 -93 49 -2 0 -29 -33 -59 -72z"/>
<path d="M3236 2700 c-10 -22 -31 -50 -47 -62 -29 -22 -36 -42 -20 -66 6 -11
21 -7 72 18 35 18 65 34 67 35 2 2 -10 28 -25 59 l-29 57 -18 -41z"/>
<path d="M996 2634 c-61 -102 -66 -92 90 -163 75 -35 143 -65 150 -68 12 -4
44 43 44 65 0 5 -26 29 -57 53 -32 24 -87 73 -123 110 l-66 66 -38 -63z"/>
<path d="M1956 2484 c-37 -103 -65 -192 -63 -198 10 -25 420 -137 437 -120 8
9 53 251 66 350 l6 51 -63 12 c-55 11 -252 67 -300 86 -12 4 -28 -31 -83 -181z"/>
<path d="M3051 2568 c-29 -10 -80 -21 -113 -25 l-60 -6 7 -36 c13 -74 11 -72
58 -51 181 79 197 88 188 112 -10 28 -16 29 -80 6z"/>
<path d="M2476 2509 c-3 -24 -8 -80 -11 -124 -3 -44 -8 -100 -12 -124 -5 -39
-4 -43 13 -37 11 3 67 14 125 25 58 10 139 26 181 36 67 15 75 19 71 36 -4 14
-11 18 -22 14 -33 -13 -264 -75 -268 -71 -2 1 62 34 142 71 l145 69 -6 40
c-12 90 2 82 -146 89 -73 4 -150 10 -170 13 l-36 6 -6 -43z"/>
<path d="M3366 2515 c8 -37 14 -45 14 -19 0 10 -5 26 -10 34 -8 11 -9 7 -4
-15z"/>
<path d="M3280 2501 c-65 -28 -78 -43 -61 -70 8 -12 20 -10 75 9 66 24 74 33
58 72 -6 15 -13 14 -72 -11z"/>
<path d="M744 2494 c8 -33 42 -66 64 -62 8 2 18 13 23 25 7 19 4 25 -19 37
-15 7 -38 17 -51 21 -22 7 -23 5 -17 -21z"/>
<path d="M697 2495 c-4 -8 -2 -17 3 -20 6 -4 10 3 10 14 0 25 -6 27 -13 6z"/>
<path d="M891 2433 c-7 -14 -10 -27 -9 -28 5 -5 260 -82 295 -89 25 -6 32 -4
35 11 3 15 -19 26 -127 64 -71 26 -142 51 -156 57 -24 9 -28 8 -38 -15z"/>
<path d="M3028 2406 c-105 -36 -118 -44 -118 -64 0 -17 4 -22 18 -19 92 26
238 71 244 76 11 9 -2 51 -16 50 -6 -1 -64 -20 -128 -43z"/>
<path d="M1351 2394 c-6 -14 -11 -29 -11 -33 0 -4 43 -27 95 -51 52 -24 93
-45 91 -47 -2 -2 -46 7 -97 21 -109 30 -119 31 -119 11 0 -8 2 -15 5 -15 3 0
67 -11 143 -25 102 -19 153 -33 199 -57 34 -18 64 -31 66 -28 3 3 8 16 11 30
6 24 -1 29 -131 92 -76 36 -161 80 -189 97 l-51 30 -12 -25z"/>
<path d="M672 2289 c3 -28 8 -33 46 -45 45 -13 47 -12 54 30 2 14 -7 22 -42
32 -61 19 -62 18 -58 -17z"/>
<path d="M3297 2293 c-36 -11 -47 -19 -43 -30 3 -8 6 -21 6 -29 0 -21 15 -17
49 12 32 26 58 65 44 63 -4 -1 -30 -8 -56 -16z"/>
<path d="M3388 2277 c-3 -19 -2 -25 4 -19 6 6 8 18 6 28 -3 14 -5 12 -10 -9z"/>
<path d="M910 2251 c0 -3 17 -19 37 -35 26 -21 58 -34 107 -43 39 -7 76 -11
83 -9 21 8 15 35 -9 41 -173 42 -218 51 -218 46z"/>
<path d="M3050 2230 c-100 -23 -115 -29 -118 -48 -4 -27 -3 -27 128 -2 155 29
150 27 150 55 0 31 -9 31 -160 -5z"/>
<path d="M673 2125 c4 -65 10 -121 15 -124 5 -3 19 -25 31 -48 12 -24 22 -43
24 -43 1 0 2 63 2 140 l0 140 -39 26 -39 27 6 -118z"/>
<path d="M3328 2175 l-58 -54 0 -109 c0 -60 -7 -149 -15 -197 -9 -48 -14 -90
-11 -92 2 -3 28 18 56 46 29 28 49 51 45 51 -4 0 -3 6 3 13 33 40 73 398 45
397 -5 -1 -34 -25 -65 -55z"/>
<path d="M1247 2161 c-3 -12 0 -21 6 -22 7 0 21 -2 32 -4 11 -1 45 -6 75 -9
30 -4 115 -16 189 -27 89 -13 138 -16 144 -10 14 14 12 14 -208 50 -104 17
-200 34 -211 37 -16 4 -23 0 -27 -15z"/>
<path d="M1832 2120 l-19 -59 51 -11 c75 -16 130 -52 154 -101 l21 -42 11 29
c24 63 71 95 169 115 l63 12 -148 38 c-82 21 -176 47 -208 58 -33 12 -63 21
-67 21 -4 0 -16 -27 -27 -60z"/>
<path d="M2676 2154 c-71 -13 -131 -26 -134 -29 -10 -9 152 -4 228 8 57 9 76
16 78 30 4 22 -8 21 -172 -9z"/>
<path d="M796 2123 c-3 -16 -9 -82 -12 -149 l-7 -121 60 -60 c33 -33 91 -84
129 -112 l69 -53 6 91 c6 80 31 229 45 264 3 8 -11 24 -34 40 -35 23 -236 127
-246 127 -2 0 -6 -12 -10 -27z"/>
<path d="M3145 2070 c-27 -10 -82 -28 -120 -40 -39 -11 -77 -25 -84 -29 -9 -6
-17 -43 -22 -104 -5 -52 -18 -137 -28 -188 -11 -52 -18 -96 -15 -98 12 -12
279 51 300 71 13 14 37 174 41 281 6 143 11 137 -72 107z"/>
<path d="M691 1954 c0 -11 3 -14 6 -6 3 7 2 16 -1 19 -3 4 -6 -2 -5 -13z"/>
<path d="M2745 1941 c-34 -10 -117 -28 -185 -40 -69 -12 -134 -24 -146 -26
-17 -4 -25 -24 -50 -124 l-29 -119 28 -6 c65 -13 258 -27 332 -24 l80 3 12 55
c12 53 36 186 46 263 7 44 3 45 -88 18z"/>
<path d="M706 1900 c15 -87 117 -350 131 -337 2 3 -5 23 -16 45 -11 23 -32 84
-45 136 -27 101 -83 226 -70 156z"/>
<path d="M1151 1838 c-24 -104 -42 -250 -32 -259 12 -13 185 -103 279 -145
l96 -43 32 142 c18 78 37 157 43 175 l10 34 -62 26 c-34 14 -123 57 -198 94
-74 37 -138 68 -141 68 -4 0 -16 -42 -27 -92z"/>
<path d="M1430 1907 c0 -2 39 -21 86 -42 69 -29 88 -34 95 -23 17 27 8 35 -56
46 -36 7 -78 15 -95 18 -16 4 -30 4 -30 1z"/>
<path d="M1732 1819 l-9 -36 96 -31 c80 -26 248 -71 362 -96 26 -6 28 -3 47
72 12 42 24 88 27 102 l6 25 -260 0 -260 0 -9 -36z"/>
<path d="M795 1745 c4 -22 18 -73 31 -113 13 -40 21 -78 18 -84 -4 -6 -2 -8 3
-5 6 4 14 0 17 -9 4 -10 2 -13 -7 -9 -6 4 -4 0 5 -8 10 -8 15 -17 11 -20 -3
-4 -1 -7 5 -7 7 0 11 -3 10 -7 -2 -5 10 -20 25 -36 16 -15 26 -31 23 -36 -8
-13 111 -148 190 -216 102 -88 109 -93 99 -75 -5 8 7 -1 26 -20 28 -28 241
-150 262 -150 3 0 -4 22 -16 50 -22 49 -23 50 -169 123 -134 67 -145 71 -126
45 39 -55 11 -38 -36 22 -26 33 -50 60 -54 60 -12 0 -141 114 -159 140 -13 18
-4 14 32 -16 28 -22 66 -52 86 -67 l35 -26 -27 81 c-15 44 -30 107 -34 138
l-7 58 -79 62 c-44 35 -100 86 -125 114 l-46 50 7 -39z"/>
<path d="M3320 1751 c0 -7 -25 -39 -56 -71 -39 -41 -67 -83 -89 -135 -30 -69
-88 -171 -133 -235 l-17 -25 31 22 c49 35 152 188 216 321 33 68 57 126 54
129 -3 4 -6 1 -6 -6z"/>
<path d="M1687 1678 c-2 -13 -23 -90 -46 -173 -22 -82 -41 -150 -41 -152 0
-11 411 -123 451 -123 11 0 30 44 69 158 29 86 55 162 57 168 2 7 -43 22 -114
39 -103 24 -306 81 -354 100 -12 4 -18 -1 -22 -17z"/>
<path d="M3105 1579 c-34 -15 -100 -30 -242 -55 -13 -3 -23 -10 -23 -17 0 -19
-93 -207 -132 -269 l-35 -54 59 8 c158 21 229 51 274 114 53 73 154 280 142
289 -2 1 -21 -6 -43 -16z"/>
<path d="M2296 1517 c-4 -17 -31 -93 -61 -167 -29 -74 -51 -138 -47 -142 12
-11 233 -29 322 -26 l85 3 68 135 c37 74 70 150 73 168 l7 32 -109 0 c-100 0
-258 13 -310 25 -18 4 -23 -1 -28 -28z"/>
<path d="M1110 1492 c1 -41 22 -161 36 -204 l16 -48 151 -75 c84 -41 154 -75
157 -75 3 0 6 44 7 98 2 53 5 106 8 118 4 17 -5 24 -53 44 -31 12 -117 53
-189 91 -104 53 -133 64 -133 51z"/>
<path d="M1586 1281 c-2 -3 -11 -44 -20 -91 -9 -47 -19 -94 -21 -106 -4 -19 7
-24 113 -57 64 -20 150 -44 190 -53 70 -15 74 -15 87 3 20 26 95 169 95 179 0
5 -46 20 -103 32 -56 13 -155 41 -220 62 -64 21 -119 35 -121 31z"/>
<path d="M2950 1205 c-34 -35 -65 -50 -39 -18 13 15 12 15 -18 -1 -38 -19
-186 -56 -227 -56 -21 0 -45 -17 -100 -69 -39 -38 -93 -83 -120 -100 l-49 -31
60 3 c34 1 59 5 57 8 -2 4 6 7 19 7 48 0 261 117 294 161 7 9 13 13 13 8 0 -4
12 5 28 21 15 15 20 19 12 8 -19 -25 55 31 89 68 37 39 20 31 -19 -9z"/>
<path d="M2108 1089 c-19 -30 -52 -74 -73 -99 l-38 -45 49 -6 c27 -4 101 -10
165 -14 l116 -8 48 33 c47 33 165 147 165 160 0 4 -69 10 -152 13 -84 4 -174
9 -199 13 l-47 6 -34 -53z"/>
<path d="M1543 984 c2 -25 6 -47 9 -49 2 -2 44 -16 93 -30 142 -41 271 -57
420 -51 72 3 141 5 154 5 32 1 244 52 238 57 -3 3 -33 0 -68 -6 -73 -13 -241
-13 -346 0 -67 9 -75 8 -115 -15 -24 -14 -55 -25 -71 -25 l-27 0 32 29 c37 33
41 31 -72 57 -41 9 -115 30 -164 45 l-88 27 5 -44z m732 -104 c-27 -12 -43
-12 -25 0 8 5 22 9 30 9 10 0 8 -3 -5 -9z"/>
<path d="M671 489 c-141 -31 -163 -218 -33 -280 73 -36 182 -14 182 36 0 29 2
29 -43 10 -54 -23 -101 -19 -135 10 -89 75 -11 207 103 177 22 -6 48 -14 58
-17 13 -6 17 -2 17 19 0 18 -7 29 -22 35 -39 14 -91 18 -127 10z"/>
<path d="M1150 345 l0 -145 25 0 25 0 0 145 0 145 -25 0 -25 0 0 -145z"/>
<path d="M1340 470 c0 -17 7 -20 50 -20 l50 0 0 -125 0 -125 25 0 25 0 0 125
0 125 50 0 c43 0 50 3 50 20 0 19 -7 20 -125 20 -118 0 -125 -1 -125 -20z"/>
<path d="M1950 345 c0 -138 1 -145 20 -145 18 0 20 7 20 64 0 55 3 67 22 80
15 11 26 12 40 5 15 -8 18 -22 18 -79 0 -68 1 -70 25 -70 24 0 25 3 25 54 0
117 -29 159 -96 138 l-34 -10 0 54 c0 47 -2 54 -20 54 -19 0 -20 -7 -20 -145z"/>
<path d="M2600 345 l0 -145 25 0 25 0 0 145 0 145 -25 0 -25 0 0 -145z"/>
<path d="M856 461 c-10 -16 5 -41 24 -41 19 0 30 17 23 38 -5 14 -39 16 -47 3z"/>
<path d="M3103 454 c-3 -8 -1 -20 5 -26 16 -16 42 -2 42 22 0 24 -38 28 -47 4z"/>
<path d="M969 372 c-26 -23 -32 -36 -32 -71 0 -78 57 -124 130 -105 32 7 39
14 41 37 3 26 2 28 -18 17 -32 -17 -81 -8 -98 18 l-14 22 71 0 c79 0 74 -6 55
60 -6 23 -52 50 -83 50 -12 0 -35 -13 -52 -28z m95 -37 c4 -12 -3 -15 -34 -15
-38 0 -49 8 -33 23 12 13 61 7 67 -8z"/>
<path d="M1603 390 c-46 -19 -66 -96 -39 -149 24 -46 75 -61 135 -40 24 8 31
17 31 36 0 20 -3 24 -17 18 -42 -18 -86 -18 -100 1 -22 30 -16 34 52 34 63 0
65 1 65 26 0 33 -51 84 -82 83 -13 0 -33 -4 -45 -9z m75 -57 c2 -9 -9 -13 -38
-13 -37 0 -41 2 -30 16 15 17 61 15 68 -3z"/>
<path d="M1801 386 c-48 -26 -64 -91 -37 -145 31 -59 146 -72 146 -16 0 21 -3
23 -42 18 -33 -5 -44 -2 -55 12 -35 48 2 102 62 91 31 -6 35 -4 35 14 0 35
-64 51 -109 26z"/>
<path d="M2236 393 c-4 -4 -22 -6 -41 -5 l-35 3 0 -96 c0 -95 0 -95 25 -95 24
0 25 2 25 70 0 55 3 71 17 79 11 6 24 6 35 0 15 -8 18 -23 18 -79 0 -69 0 -70
26 -70 l26 0 -4 81 c-3 70 -6 83 -27 100 -24 19 -52 25 -65 12z"/>
<path d="M2415 386 c-48 -21 -71 -97 -45 -147 17 -30 68 -52 108 -45 97 15
122 136 40 186 -38 23 -61 24 -103 6z"/>
<path d="M2744 390 c-34 -13 -64 -59 -64 -97 0 -47 54 -103 99 -103 39 0 87
24 101 49 15 29 12 88 -6 116 -24 37 -85 54 -130 35z m85 -54 c20 -24 9 -79
-18 -92 -50 -25 -98 27 -73 81 9 20 19 25 46 25 18 0 39 -6 45 -14z"/>
<path d="M3218 371 c-28 -25 -33 -36 -33 -76 0 -40 5 -51 33 -76 35 -31 73
-37 117 -17 16 7 25 19 25 35 0 20 -3 22 -19 13 -30 -16 -76 -12 -94 8 -10 10
-17 22 -17 25 0 4 29 7 65 7 64 0 65 0 65 28 -1 31 -16 54 -47 70 -35 19 -60
14 -95 -17z m92 -36 c11 -13 7 -15 -29 -15 -38 0 -50 8 -34 23 12 12 50 7 63
-8z"/>
<path d="M3412 384 c-41 -28 -27 -71 38 -116 21 -14 22 -19 11 -27 -10 -6 -24
-5 -43 5 -27 14 -28 14 -28 -10 0 -43 64 -61 108 -30 37 26 30 69 -18 102 -50
35 -50 46 0 38 36 -6 40 -4 40 14 0 36 -69 52 -108 24z"/>
<path d="M850 295 c0 -95 0 -95 25 -95 25 0 25 0 25 95 0 95 0 95 -25 95 -25
0 -25 0 -25 -95z"/>
<path d="M2931 364 c-24 -31 -25 -34 -10 -71 17 -42 16 -76 -3 -91 -26 -19
-23 -67 4 -86 12 -9 43 -16 68 -16 58 0 90 22 90 60 0 32 -24 53 -72 64 -32 7
-38 26 -9 26 32 0 64 34 64 68 0 18 4 32 9 32 4 0 8 9 8 20 0 18 -7 20 -64 20
-58 0 -67 -3 -85 -26z m87 -40 c3 -23 -18 -37 -43 -28 -16 6 -20 35 -8 48 14
14 48 1 51 -20z m12 -156 c0 -5 0 -12 0 -18 0 -5 -18 -10 -40 -10 -33 0 -40 3
-40 19 0 11 8 21 18 23 21 5 62 -4 62 -14z"/>
<path d="M3100 295 c0 -95 0 -95 25 -95 25 0 25 0 25 95 0 95 0 95 -25 95 -25
0 -25 0 -25 -95z"/>
</g>
</svg>
