<?xml version="1.0" standalone="no"?>
<!DOCTYPE svg PUBLIC "-//W3C//DTD SVG 20010904//EN"
 "http://www.w3.org/TR/2001/REC-SVG-20010904/DTD/svg10.dtd">
<svg version="1.0" xmlns="http://www.w3.org/2000/svg"
 width="16.000000pt" height="16.000000pt" viewBox="0 0 16.000000 16.000000"
 preserveAspectRatio="xMidYMid meet">
<metadata>
Created by potrace 1.11, written by Peter Selinger 2001-2013
</metadata>
<g transform="translate(0.000000,16.000000) scale(0.001798,-0.001798)"
fill="#000000" stroke="none">
<path d="M3885 7281 c-511 -52 -977 -274 -1344 -640 -269 -268 -482 -654 -569
-1026 -41 -174 -54 -292 -54 -500 -1 -214 4 -250 30 -241 10 3 101 34 203 68
l187 63 -6 76 c-14 214 64 435 203 574 l70 70 3 -323 c2 -301 3 -323 20 -320
16 3 17 27 14 339 l-4 335 39 26 c39 26 158 88 168 88 3 0 5 -166 5 -370 0
-363 0 -370 20 -370 20 0 20 7 20 378 l0 379 58 16 c255 70 475 36 692 -110
l65 -43 5 82 5 83 93 3 92 2 1 -177 c1 -98 4 -168 6 -156 2 13 15 24 31 29 45
12 193 11 219 -3 13 -6 26 -12 28 -12 27 -2 55 -16 52 -25 -3 -7 5 -13 16 -14
16 -1 18 1 8 7 -9 6 -10 11 -2 15 7 5 11 62 11 169 l0 162 338 0 337 0 0 -355
c0 -195 4 -361 8 -367 24 -37 27 8 27 351 l0 363 92 6 c50 3 96 3 101 0 6 -4
8 -100 6 -247 -6 -388 -2 -516 16 -516 13 0 15 49 15 383 l0 382 303 -1 c166
0 317 -1 335 -2 l32 -2 0 -270 0 -270 -94 0 -93 0 -7 92 c-3 50 -6 129 -6 175
l0 83 -135 0 c-122 0 -135 -2 -135 -17 0 -10 -1 -81 -3 -158 -1 -77 -1 -206 1
-286 l2 -146 190 -47 c181 -44 511 -146 606 -186 l44 -19 7 27 c15 54 8 412
-11 532 -107 715 -539 1316 -1176 1635 -212 106 -391 165 -630 206 -130 22
-426 33 -555 20z m456 -176 c204 -30 384 -86 567 -177 103 -50 116 -68 46 -62
-19 1 -34 -2 -34 -7 0 -5 7 -9 15 -9 13 0 15 -21 15 -125 0 -75 -4 -125 -10
-125 -5 0 -65 22 -133 49 -280 112 -470 151 -732 151 -95 0 -324 -23 -397 -39
-51 -12 -226 -69 -321 -105 -90 -35 -238 -109 -274 -138 -8 -6 -19 -5 -32 2
-17 9 -29 6 -64 -15 -24 -14 -51 -25 -60 -25 -10 0 -17 -5 -17 -11 0 -5 -4 -7
-10 -4 -5 3 -10 1 -10 -4 0 -6 -6 -11 -13 -11 -6 0 -33 -11 -60 -25 -26 -14
-47 -22 -47 -18 0 5 -7 -1 -15 -11 -11 -14 -15 -16 -15 -5 0 12 -2 12 -10 -1
-9 -13 -10 -13 -10 0 -1 12 -3 11 -11 -2 -11 -19 -34 -24 -44 -9 -3 6 -7 31
-9 58 l-4 48 91 88 c228 220 454 359 729 451 118 40 288 79 388 89 100 11 385
6 481 -8z m763 -294 c-2 -3 -12 3 -22 13 -16 17 -16 18 5 5 12 -7 20 -15 17
-18z m46 -71 c0 -5 4 -10 10 -10 9 0 69 -39 183 -120 26 -19 47 -37 47 -42 0
-4 5 -8 12 -8 7 0 25 -12 40 -27 24 -23 28 -34 28 -84 0 -40 -4 -58 -14 -62
-24 -10 -81 4 -107 25 l-24 19 25 -6 c19 -5 22 -4 10 4 -8 6 -23 8 -34 5 -12
-4 -16 -2 -12 5 5 7 1 9 -9 5 -8 -4 -22 -1 -30 6 -8 6 -45 27 -83 45 -80 38
-82 41 -82 168 0 80 2 87 20 87 11 0 20 -4 20 -10z m-2101 -229 c11 -7 10 -11
-6 -19 -13 -7 -24 -7 -34 0 -11 8 -10 9 5 4 13 -5 17 -2 12 9 -6 17 2 19 23 6z
m1101 -840 c-31 -5 -28 -6 25 -11 37 -4 -5 -7 -105 -7 -91 0 -146 2 -122 4 23
2 42 8 42 12 0 4 44 8 98 7 53 0 81 -2 62 -5z"/>
<path d="M4904 6902 c3 -5 -1 -12 -9 -16 -8 -3 -17 -1 -20 4 -4 6 -11 10 -16
10 -6 0 -4 -7 4 -15 16 -16 90 -16 104 -1 4 5 2 6 -5 2 -7 -4 -24 0 -39 9 -14
9 -23 13 -19 7z"/>
<path d="M4368 6823 c7 -3 16 -2 19 1 4 3 -2 6 -13 5 -11 0 -14 -3 -6 -6z"/>
<path d="M4340 6810 c8 -5 20 -10 25 -10 6 0 3 5 -5 10 -8 5 -19 10 -25 10 -5
0 -3 -5 5 -10z"/>
<path d="M4414 6805 c11 -8 34 -15 50 -15 24 0 27 -3 16 -10 -13 -8 -12 -10 3
-10 20 0 24 40 5 41 -7 0 -21 2 -30 4 -10 2 -18 -2 -18 -8 0 -8 -3 -8 -8 -2
-4 6 -14 11 -22 13 -10 1 -9 -2 4 -13z"/>
<path d="M3065 6550 c-3 -6 1 -7 9 -4 18 7 21 14 7 14 -6 0 -13 -4 -16 -10z"/>
<path d="M3088 5744 c-5 -4 -8 -135 -8 -291 0 -155 3 -283 8 -283 4 0 75 9
157 20 83 11 158 20 167 20 13 0 16 7 13 30 -2 17 0 30 5 30 5 0 12 21 16 48
4 26 9 41 11 34 7 -18 23 -4 23 19 0 10 5 18 12 17 6 -2 14 8 18 22 5 20 14
26 50 32 25 5 50 6 57 4 6 -3 14 7 17 21 6 21 9 23 23 11 14 -11 15 -11 6 7
-41 77 -190 193 -300 235 -60 23 -260 41 -275 24z"/>
<path d="M4460 5569 c0 -101 3 -148 10 -144 7 4 9 -2 5 -18 -5 -19 -2 -25 14
-30 22 -6 29 8 9 16 -10 4 -10 6 0 6 6 1 12 10 12 22 0 18 5 20 38 18 43 -4
49 -9 81 -69 14 -25 28 -47 31 -50 6 -4 17 -48 22 -87 1 -7 9 -13 19 -13 9 0
24 -3 33 -6 14 -6 16 21 16 250 l0 256 -145 0 -145 0 0 -151z"/>
<path d="M4568 4931 c-8 -11 -18 -18 -21 -14 -4 3 -10 -8 -13 -25 -4 -18 -13
-32 -21 -32 -8 0 -11 -4 -8 -10 3 -5 -1 -10 -9 -10 -9 0 -16 -7 -16 -15 0 -8
-4 -15 -8 -15 -14 0 -52 -36 -52 -49 0 -6 -4 -11 -8 -11 -5 0 -18 -8 -30 -17
-11 -10 -32 -26 -46 -37 -14 -10 -25 -21 -24 -25 1 -3 -2 -30 -7 -58 -7 -48
-14 -58 -37 -54 -5 0 -8 -4 -8 -11 0 -6 -3 -8 -6 -5 -4 3 -14 2 -24 -3 -9 -5
-37 -10 -63 -11 -25 -2 -44 -6 -41 -11 3 -4 -35 -8 -85 -8 -49 0 -93 5 -96 10
-3 6 -13 10 -21 10 -11 0 -14 -20 -14 -100 l0 -100 -100 0 -100 0 0 70 0 70
-52 -34 c-141 -90 -279 -133 -453 -143 -99 -5 -258 7 -300 23 -13 5 -15 48
-15 280 0 267 0 274 -20 274 -19 0 -20 -7 -20 -265 0 -146 -2 -265 -5 -265
-15 0 -96 46 -142 81 l-53 40 0 184 c0 178 -1 185 -20 185 -19 0 -20 -7 -20
-165 0 -98 -4 -165 -10 -165 -17 0 -128 142 -165 211 -20 38 -38 69 -41 69
-16 0 -423 -109 -432 -115 -2 -2 6 -39 17 -83 57 -221 165 -465 291 -657 549
-835 1578 -1185 2535 -864 125 42 371 165 490 245 385 258 676 624 833 1049
40 107 74 218 87 281 l6 31 -133 36 c-269 74 -670 161 -683 149 -3 -3 -5 -79
-5 -169 l0 -163 95 0 95 0 0 -95 0 -95 -190 0 -190 0 0 280 c0 273 0 280 -20
280 -20 0 -20 -7 -20 -280 l0 -280 -95 0 -95 0 0 295 c0 292 0 295 -21 295
-18 0 -20 -6 -19 -57 1 -32 1 -165 1 -295 l-1 -238 -190 0 -190 0 0 95 0 95
95 0 95 0 0 210 0 210 -47 0 c-27 0 -64 3 -84 6 -30 5 -39 2 -51 -15z m10
-141 c24 0 30 -24 9 -37 -8 -4 -17 -16 -20 -26 -4 -10 -11 -16 -16 -13 -5 3
-12 -4 -15 -17 -7 -21 -7 -21 -16 -2 -5 11 -9 40 -9 64 -1 40 1 43 22 37 12
-3 32 -6 45 -6z m-1116 -1515 c5 -6 8 -6 8 1 0 15 55 23 72 11 10 -7 10 -10 1
-14 -15 -5 -18 -23 -5 -23 5 0 14 10 19 23 10 22 16 23 79 19 38 -2 88 -5 111
-5 24 -1 43 -6 43 -10 0 -5 5 -5 10 -2 6 4 7 11 4 17 -4 7 -2 8 5 4 6 -4 9
-11 7 -15 -5 -7 33 -6 154 3 25 1 51 -2 59 -8 11 -8 13 -8 8 1 -4 6 -2 15 4
19 7 4 9 3 6 -3 -4 -6 9 -10 31 -11 116 -4 148 -7 154 -17 5 -6 8 -6 8 2 0 7
7 10 16 6 9 -3 11 -9 6 -12 -5 -3 2 -15 17 -25 26 -20 26 -20 8 0 -16 20 -14
34 5 34 5 0 7 -4 3 -9 -3 -5 0 -13 6 -17 7 -4 9 -3 6 3 -9 15 49 22 64 9 9 -8
10 -8 5 1 -5 9 12 12 60 12 36 0 71 5 79 11 10 8 15 8 21 -1 4 -8 3 -9 -5 -5
-6 4 -14 0 -17 -9 -4 -10 -17 -16 -33 -15 -44 3 -57 -2 -26 -10 28 -7 27 -8
-15 -10 -100 -5 -105 -5 -103 8 4 16 -2 15 -17 -4 -8 -8 -9 -14 -4 -13 5 1 17
-1 27 -6 9 -4 28 -5 42 -3 13 3 22 1 19 -3 -3 -5 -17 -10 -32 -10 -25 -2 -25
-2 -4 -6 13 -3 31 2 40 10 10 8 34 13 60 12 24 -1 45 2 48 7 3 4 14 8 25 8 11
0 31 7 44 16 14 9 25 12 25 6 0 -6 9 -8 20 -5 11 3 20 3 20 0 0 -6 -72 -29
-100 -31 -9 -1 -20 -5 -25 -8 -20 -13 -178 -38 -309 -50 -102 -9 -166 -9 -272
0 -138 11 -319 42 -372 64 -15 6 -34 12 -42 13 -31 4 -90 27 -90 35 0 5 -7 7
-15 4 -8 -4 -15 -1 -15 6 0 7 -7 10 -15 6 -8 -3 -15 -1 -15 5 0 6 -5 7 -12 3
-6 -4 -8 -3 -5 3 8 12 88 -6 99 -22z m875 -1 c-3 -3 -12 -4 -19 -1 -8 3 -5 6
6 6 11 1 17 -2 13 -5z"/>
<path d="M3667 3273 c4 -16 13 -23 30 -23 22 0 24 2 12 16 -9 11 -15 12 -17 5
-3 -8 -9 -5 -18 6 -12 17 -13 16 -7 -4z"/>
<path d="M3390 4933 c-191 -17 -259 -25 -282 -29 l-28 -6 0 -209 0 -209 78 0
c171 1 315 56 433 168 66 61 110 116 78 97 -9 -6 -11 -3 -6 8 4 11 1 17 -9 17
-8 0 -12 -4 -9 -10 13 -21 -8 -8 -47 30 -23 22 -38 40 -34 40 5 0 -5 13 -21
29 -33 31 -47 67 -29 75 12 5 -69 5 -124 -1z"/>
<path d="M1183 2496 c-159 -52 -253 -179 -253 -341 0 -233 193 -384 443 -347
41 7 97 20 124 31 l48 19 3 55 3 56 -64 -30 c-142 -66 -281 -57 -372 23 -53
46 -85 118 -85 193 1 216 226 325 458 220 l52 -24 0 54 0 54 -67 22 c-86 27
-231 34 -290 15z"/>
<path d="M2370 2155 l0 -345 45 0 45 0 0 345 0 345 -45 0 -45 0 0 -345z"/>
<path d="M2700 2460 l0 -40 120 0 120 0 0 -305 0 -305 50 0 50 0 0 305 0 305
120 0 120 0 0 40 0 40 -290 0 -290 0 0 -40z"/>
<path d="M4140 2155 l0 -345 45 0 45 0 0 163 c0 157 1 164 23 184 75 69 157
54 177 -32 5 -22 10 -102 10 -177 l0 -138 46 0 47 0 -5 173 c-3 138 -8 179
-22 209 -25 51 -74 80 -136 80 -52 -1 -81 -12 -117 -45 l-23 -20 0 146 0 147
-45 0 -45 0 0 -345z"/>
<path d="M5720 2155 l0 -345 45 0 45 0 0 345 0 345 -45 0 -45 0 0 -345z"/>
<path d="M1678 2448 c-31 -24 -27 -74 7 -90 55 -25 103 52 53 86 -27 19 -39
20 -60 4z"/>
<path d="M6956 2444 c-29 -29 -10 -94 27 -94 25 0 57 32 57 55 0 23 -32 55
-57 55 -6 0 -19 -7 -27 -16z"/>
<path d="M2031 2268 c-110 -19 -181 -126 -168 -254 18 -174 181 -259 355 -184
40 18 42 21 42 63 l0 44 -42 -20 c-61 -30 -154 -34 -195 -8 -36 23 -59 53 -68
94 l-7 27 161 0 161 0 0 33 c0 75 -46 158 -104 189 -33 18 -87 25 -135 16z
m122 -109 c15 -16 27 -40 27 -54 l0 -25 -110 0 c-121 0 -125 2 -94 61 33 64
126 73 177 18z"/>
<path d="M3853 2269 c-92 -17 -152 -77 -173 -171 -25 -117 19 -221 115 -271
45 -24 169 -29 218 -9 23 10 27 17 27 53 0 38 -2 41 -22 34 -13 -4 -52 -9 -88
-12 -53 -3 -71 0 -97 16 -42 26 -65 73 -65 131 0 122 103 183 220 130 l42 -19
0 48 0 48 -42 11 c-71 18 -91 20 -135 11z"/>
<path d="M4846 2268 c-22 -5 -55 -20 -73 -34 l-33 -25 0 30 c0 30 -1 31 -45
31 l-45 0 0 -230 0 -230 45 0 45 0 0 163 0 163 29 28 c40 38 106 46 141 18 25
-20 25 -22 28 -196 l3 -176 45 0 44 0 0 175 c0 132 -4 183 -14 203 -33 64
-100 95 -170 80z"/>
<path d="M7345 2274 c-6 -1 -27 -5 -48 -9 -58 -9 -120 -71 -142 -141 -44 -141
27 -285 157 -314 62 -14 151 -2 202 28 26 15 32 25 34 60 2 23 1 42 -2 42 -3
0 -21 -10 -41 -21 -53 -32 -159 -37 -202 -10 -36 23 -59 53 -68 94 l-7 27 162
0 163 0 -6 55 c-10 99 -69 169 -156 185 -20 3 -41 5 -46 4z m88 -114 c15 -17
27 -41 27 -55 l0 -25 -110 0 c-121 0 -125 2 -94 61 33 64 127 74 177 19z"/>
<path d="M7742 2270 c-52 -8 -99 -50 -108 -97 -10 -54 20 -96 116 -161 93 -62
108 -88 68 -116 -33 -23 -68 -20 -132 12 l-56 29 0 -47 c0 -46 1 -48 40 -64
96 -38 190 -28 235 26 32 38 39 69 26 111 -14 43 -44 71 -129 123 -52 32 -68
46 -70 67 -5 40 35 52 104 32 29 -8 56 -20 59 -25 14 -22 25 -7 25 33 0 38 -4
45 -27 56 -41 19 -103 27 -151 21z"/>
<path d="M1667 2263 c-4 -3 -7 -107 -7 -230 l0 -223 45 0 45 0 0 230 0 230
-38 0 c-21 0 -42 -3 -45 -7z"/>
<path d="M3295 2247 c-110 -62 -140 -252 -58 -360 46 -60 96 -82 183 -81 54 0
88 7 123 22 46 20 47 22 47 66 l0 46 -42 -22 c-23 -12 -67 -24 -99 -26 -72 -5
-118 15 -147 67 -40 72 -42 71 138 71 l160 0 0 26 c0 82 -53 174 -116 200 -52
22 -142 18 -189 -9z m150 -61 c33 -14 65 -59 65 -91 0 -13 -17 -15 -109 -15
-61 0 -112 4 -115 8 -11 18 30 78 64 94 42 22 51 22 95 4z"/>
<path d="M5317 2259 c-111 -26 -180 -113 -179 -225 1 -133 95 -225 232 -228
143 -2 237 78 248 211 4 54 1 70 -22 118 -32 63 -89 109 -157 124 -51 12 -71
12 -122 0z"/>
<path d="M6105 2261 c-155 -40 -228 -193 -157 -332 51 -102 168 -149 285 -115
106 31 169 111 170 215 1 97 -52 181 -134 215 -45 19 -125 27 -164 17z m138
-98 c41 -21 67 -69 67 -128 0 -91 -54 -145 -147 -145 -116 0 -185 108 -134
212 38 80 126 105 214 61z"/>
<path d="M6620 2259 c-49 -10 -83 -31 -114 -72 -42 -57 -15 -173 48 -207 l25
-13 -32 -21 c-40 -27 -45 -51 -17 -81 l21 -23 -38 -18 c-79 -40 -93 -126 -29
-190 38 -38 89 -54 171 -54 82 0 130 15 173 55 33 30 37 39 37 84 0 72 -32
103 -139 131 -109 28 -126 36 -126 59 0 15 10 23 43 31 97 24 114 31 139 57
47 52 56 117 22 168 -21 30 -17 35 26 35 39 0 40 1 40 35 l0 35 -102 -1 c-57
-1 -123 -5 -148 -10z m79 -84 c31 -16 41 -33 41 -71 0 -37 -15 -60 -49 -74
-61 -25 -121 10 -121 70 0 72 63 109 129 75z m6 -396 c82 -21 100 -78 35 -112
-48 -25 -159 -20 -190 8 -33 30 -24 76 20 97 41 21 74 22 135 7z"/>
<path d="M6947 2263 c-4 -3 -7 -107 -7 -230 l0 -223 45 0 45 0 0 230 0 230
-38 0 c-21 0 -42 -3 -45 -7z"/>
</g>
</svg>
