<?xml version="1.0" encoding="utf-8"?>
<!-- Generator: Adobe Illustrator 21.0.0, SVG Export Plug-In . SVG Version: 6.00 Build 0)  -->
<svg version="1.1" id="Layer_1" xmlns="http://www.w3.org/2000/svg" xmlns:xlink="http://www.w3.org/1999/xlink" x="0px" y="0px"
	 viewBox="0 0 210 75" style="enable-background:new 0 0 210 75;" xml:space="preserve">
<style type="text/css">
	.st0{fill:#C92026;}
	.st1{fill:#FFFFFF;}
</style>
<g>
	<g>
		<path class="st0" d="M17.6,11.4C28.2,6.3,39,3.9,48,4.4c-6-2-12.7-2.5-19.3-1C20.1,5.4,13,10.4,8.2,17
			C11.1,15,14.2,13.1,17.6,11.4"/>
		<path class="st1" d="M49.8,5c-7.7,0.6-16.2,2.9-24.6,7C15.4,16.8,7.5,23.2,2.2,30.1c-0.3,1.2-0.5,2.5-0.6,3.7
			c4.8-4.6,10.8-8.9,17.8-12.3c12.5-6.1,25.3-8.2,35.2-6.6C46.1,15,36.4,17.3,26.9,22c-11.2,5.5-20,13.2-25.1,21.2
			C1.9,43.8,2,44.4,2.1,45c5-5.1,11.4-9.8,19-13.6c12.5-6.1,25.3-8.2,35.2-6.6C47.8,25,38.2,27.3,28.7,32C18,37.2,9.5,44.5,4.3,52
			C11,67.3,27.8,76.2,44.6,72.3c19-4.4,30.9-23.4,26.5-42.4C68.4,18.2,60.1,9.2,49.8,5"/>
	</g>
	<g>
		<g>
			<path class="st0" d="M113.2,33.2h9.3c0.1,1.5,0.1,2.5,0.1,2.9c0,2.4-0.4,4.2-1.1,5.5c-0.8,1.5-2.3,2.5-4.6,3.1
				c-2.3,0.5-6.2,0.8-11.7,0.8c-5.8,0-10-0.1-12.5-0.3c-2.5-0.2-4.3-0.7-5.6-1.3c-1.1-0.6-2-1.4-2.5-2.4c-0.6-1-0.9-2.3-1.1-4.1
				c-0.1-1.4-0.2-3.9-0.2-7.5c0-3.5,0.1-6.1,0.2-7.7c0.1-1.6,0.4-2.8,0.8-3.7c0.9-1.9,2.6-3.2,5.2-3.8c2.6-0.6,7.9-0.9,15.8-0.9
				c4,0,6.8,0.1,8.6,0.3c1.8,0.2,3.2,0.5,4.3,1c1.4,0.7,2.4,1.6,2.9,2.9c0.6,1.3,0.9,3.2,0.9,5.7c0,0.1,0,0.6,0,1.5h-9.3
				c0-1-0.1-1.7-0.2-2c-0.1-0.3-0.3-0.6-0.5-0.9c-0.4-0.3-1.3-0.5-2.7-0.7c-1.5-0.1-3.7-0.2-6.6-0.2c-2.9,0-4.9,0.1-6.1,0.2
				c-1.1,0.1-1.9,0.4-2.4,0.8c-0.6,0.4-0.9,1.2-1.2,2.3c-0.2,1.1-0.3,2.8-0.3,5.1c0,2.3,0.1,4,0.3,4.9c0.2,1,0.6,1.6,1.1,2.1
				c0.5,0.4,1.4,0.7,2.5,0.8c1.1,0.1,3.2,0.2,6.1,0.2c3.6,0,6-0.1,7.2-0.2c1.2-0.1,2-0.4,2.4-0.8C112.9,36.4,113.2,35.1,113.2,33.2z
				"/>
			<path class="st0" d="M125.9,14.4h9.8V45h-9.8V14.4z"/>
			<path class="st0" d="M140,14.4h34v7.2h-24.7V26h23.5v6.7h-23.5v4.9h24.9V45H140V14.4z"/>
			<path class="st0" d="M177.1,14.4h9.8v22.8h21.8V45h-31.6V14.4z"/>
		</g>
		<g>
			<path class="st1" d="M85.1,53.7h-1.6v-1.8h5.2v1.8h-1.6v7.8h-2V53.7z"/>
			<path class="st1" d="M93.8,51.9h4.7v1.8h-2.7v1.9h2.7v1.8h-2.7v2.3h2.7v1.8h-4.7V51.9z"/>
			<path class="st1" d="M110.7,57.8c0,2.2-1.2,3.9-3.5,3.9c-2.1,0-3.5-1.6-3.5-5c0-3.4,1.4-5,3.5-5c2.3,0,3.5,1.8,3.5,4h-2
				c-0.1-1.7-0.5-2.1-1.3-2.1c-0.9,0-1.6,0.8-1.6,3.1s0.7,3.1,1.6,3.1c1,0,1.3-1,1.3-2H110.7z"/>
			<path class="st1" d="M116,61.6v-9.7h2v3.7h2.4v-3.7h2v9.7h-2v-4.1H118v4.1H116z"/>
			<path class="st1" d="M132.4,57.6v-5.7h1.7v9.7h-1.8l-2.7-6.2v6.2H128v-9.7h2L132.4,57.6z"/>
			<path class="st1" d="M139.4,56.7c0-3,1.2-5,3.5-5c2.4,0,3.5,2,3.5,5s-1.2,5-3.5,5C140.6,61.7,139.4,59.8,139.4,56.7L139.4,56.7z
				 M141.4,56.8c0,2.3,0.5,3.2,1.5,3.2s1.5-0.9,1.5-3.2c0-2.3-0.5-3.2-1.5-3.2S141.4,54.4,141.4,56.8L141.4,56.8z"/>
			<path class="st1" d="M151.8,51.9h2v7.8h2.5v1.8h-4.5V51.9z"/>
			<path class="st1" d="M160.5,56.7c0-3,1.2-5,3.5-5c2.4,0,3.5,2,3.5,5s-1.2,5-3.5,5C161.7,61.7,160.5,59.8,160.5,56.7L160.5,56.7z
				 M162.6,56.8c0,2.3,0.5,3.2,1.5,3.2s1.5-0.9,1.5-3.2c0-2.3-0.5-3.2-1.5-3.2S162.6,54.4,162.6,56.8L162.6,56.8z"/>
			<path class="st1" d="M177.4,55.3c0-0.4-0.1-0.7-0.2-1c-0.2-0.5-0.5-0.8-1.1-0.8c-1,0-1.6,0.9-1.6,3.2c0,2.3,0.5,3.2,1.6,3.2
				c0.5,0,0.8-0.2,1.1-0.5c0.2-0.3,0.3-0.8,0.3-1.2h-1.7v-1.8h3.7v1.9c0,2-1.3,3.6-3.4,3.6c-2.5,0-3.6-1.9-3.6-5c0-3,1.2-5,3.6-5
				c2,0,3.3,1.4,3.4,3.6H177.4z"/>
			<path class="st1" d="M184.7,51.9h2v9.7h-2V51.9z"/>
			<path class="st1" d="M192.3,51.9h4.7v1.8h-2.7v1.9h2.7v1.8h-2.7v2.3h2.7v1.8h-4.7V51.9z"/>
			<path class="st1" d="M204.3,58.5c0,1,0.4,1.5,1.2,1.5c0.7,0,1.1-0.5,1.1-1.1c0-0.9-1-1.1-2.1-1.5c-1-0.4-2.1-1-2.1-2.6
				c0-1.8,1.1-3,3-3c1.8,0,2.8,0.9,3.1,2.8h-1.9c0-0.7-0.4-1.1-1.1-1.1c-0.6,0-1,0.5-1,1.1c0,0.9,1,1.1,2.1,1.5
				c1,0.4,2.1,1.1,2.1,2.9c0,1.8-1.4,2.9-3.2,2.9c-2.2,0-3.2-1.2-3.2-3.2H204.3z"/>
		</g>
	</g>
</g>
</svg>
