<svg xmlns="http://www.w3.org/2000/svg" xmlns:xlink="http://www.w3.org/1999/xlink" width="406.3" height="386.9" viewBox="634.1 480.1 406.3 386.9" enable-background="new 634.1 480.1 406.3 386.9" aria-labelledby="title descript" role="img"><title id="title">Ciel Technologies logo</title><desc id="descript">Ciel Technologies logo</desc><g enable-background="new"><defs><path id="a" d="M702.4 678.2c-1.1-6.3-1.7-14.9-2.1-21.3-.2-4 .2-9.4.4-13.4.2-3.9 1-9.2 1.7-13.1.9-4.6 2.2-10.9 3.6-15.3 1.1-3.2 2.3-7.5 3.6-10.6 2.6-6 6.1-14.1 9.6-19.7 2.6-4.3 6.2-9.9 9.3-13.8 3.9-4.9 9.5-11.2 14-15.6 2.6-2.5 6.2-5.8 9.1-8 4.7-3.6 11.1-8.3 16.4-11.2 2.6-1.4 5.9-3.4 8.6-4.6 3.3-1.6 7.7-3.4 11.1-4.9 4.1-1.7 9.8-3.4 14.1-4.6 4.4-1.3 10.5-2.5 15-3.1 2.7-.4 6.4-.9 9.2-1.1 2.3-.2 5.3-.4 7.6-.4 1.7-.1 4.1-.1 5.8-.1l5.6.2 5.6.4c1.6.1 3.7.4 5.3.6 5.6.9 6.2.9 9.6 1.6 3.4.7 6.1 5.4 7.6 14.3-1.6-8.9-4.2-13.6-7.6-14.3l4.6 1.1c1.4.3 3.1.8 4.4 1.1 2.6.8 5.9 1.9 8.4 2.7 1.3.4 2.9 1.1 4.2 1.6 5.6 2.2 8.9 3.9 12.8 5.8 2.4 1.2 7 3.9 9.4 5.3 1.9 1.2 6.5 4.1 10.3 7.1 1.6 1.2 3.8 2.9 5.4 4.2 2 1.6 4.6 3.9 6.4 5.7 3.5 3.4 8 8.1 11.1 11.9 2.6 3 5.7 7.3 7.9 10.6 5.5 8.1 10 16.5 13.6 25.4 1.1 2.9 2.6 6.6 3.5 9.6 1.6 5.4 3.6 12.7 4.5 18.2.8 4.6 1.4 10.6 1.8 15.3.3 3.2.4 7.6.2 10.8-.2 3.9-.3 9.3-.9 13.2-1 6.6-2.5 15.4-4.3 21.8-1.1 3.9-2.7 9-4.3 12.7-2.6 6.1-6.4 13.9-9.6 19.7-2.4 4.4-6.4 9.8-9.3 13.8-1.9 2.6-4.7 5.7-6.7 8.1-5.8 6.8-15.5 14.8-16.4 15.4-4.8 3.5-11.3 8.1-16.4 11.2-3.3 2-7.8 4.4-11.4 5.9-4.9 2.1-11.5 4.8-16.6 6.4-3.9 1.3-9.3 2.6-13.4 3.5-2.2.5-5.2 1-7.5 1.4-2.7.4-6.4.8-9.2 1.1-.2 0-6 .6-13.4.4-10.3-.1-18.6-1.5-21.4-2-5.4-1-8.6-1.8-9.4-1.9-1.4-.4-3.1-.8-4.4-1.1-2.6-.8-6-1.8-8.4-2.7l-4.2-1.6c-1.3-.5-2.9-1.2-4.1-1.7-1.3-.6-3-1.4-4.3-1.9-1.9-.9-6.1-3-8.9-4.6-4.6-2.6-7.8-4.7-9.6-6-1.6-1.1-6.6-4.6-10.8-8.1-2-1.7-4.6-3.9-6.4-5.7-3.4-3.4-8-8.1-11.1-11.9-1.2-1.4-7.4-8.9-13-18.5-2.9-5.1-6.6-12-8.6-17.5-1.1-2.9-2.6-6.6-3.5-9.6-1.1-5.3-3.1-12.6-4.1-18.2z"/></defs><clipPath id="b"><use xlink:href="#a" overflow="visible"/></clipPath><g clip-path="url(#b)"><defs><filter id="c" filterUnits="userSpaceOnUse" x="698.4" y="516.5" width="276.8" height="276.8"><feColorMatrix values="1 0 0 0 0 0 1 0 0 0 0 0 1 0 0 0 0 0 1 0"/></filter></defs><mask maskUnits="userSpaceOnUse" x="698.4" y="516.5" width="276.8" height="276.8" id="e"><g filter="url(#c)"><radialGradient id="d" cx="860.109" cy="547.194" r="138.374" gradientTransform="matrix(.947 .322 -.322 .947 198.567 -140.064)" gradientUnits="userSpaceOnUse"><stop offset=".972" stop-color="#fff"/><stop offset="1" stop-color="#020100"/></radialGradient><path d="M967.8 699.4c-24.6 72.4-103.3 111.1-175.7 86.5-72.4-24.7-110.9-103.2-86.3-175.5 24.5-72.4 103.1-111 175.5-86.6 72.2 24.8 111.1 103.3 86.5 175.6z" fill="url(#d)"/></g></mask><path d="M967.8 699.4c-24.6 72.4-103.3 111.1-175.7 86.5-72.4-24.7-110.9-103.2-86.3-175.5 24.5-72.4 103.1-111 175.5-86.6 72.2 24.8 111.1 103.3 86.5 175.6z" mask="url(#e)" fill="#134D69"/><defs><filter id="f" filterUnits="userSpaceOnUse" x="721.4" y="635.4" width="175.7" height="158.3"><feColorMatrix values="1 0 0 0 0 0 1 0 0 0 0 0 1 0 0 0 0 0 1 0"/></filter></defs><mask maskUnits="userSpaceOnUse" x="721.4" y="635.4" width="175.7" height="158.3" id="i"><g filter="url(#f)"><radialGradient id="g" cx="627.841" cy="804.234" r="91.813" gradientTransform="matrix(.404 -.704 .867 .498 -141.864 755.566)" gradientUnits="userSpaceOnUse"><stop offset="0" stop-color="#595757"/><stop offset="1" stop-color="#020000"/></radialGradient><path d="M846.4 650c43.9 25.2 62.9 74.7 42.4 110.4-20.4 35.7-72.7 44.1-116.7 18.8-44-25.2-63-74.7-42.4-110.4 20.4-35.7 72.6-44 116.7-18.8z" fill="url(#g)"/><radialGradient id="h" cx="627.841" cy="804.234" r="91.813" gradientTransform="matrix(.404 -.704 .867 .498 -141.864 755.566)" gradientUnits="userSpaceOnUse"><stop offset="0" stop-color="#595757"/><stop offset="1" stop-color="#020000"/></radialGradient><path d="M846.4 650c43.9 25.2 62.9 74.7 42.4 110.4-20.4 35.7-72.7 44.1-116.7 18.8-44-25.2-63-74.7-42.4-110.4 20.4-35.7 72.6-44 116.7-18.8z" fill="url(#h)"/></g></mask><path d="M846.4 650c43.9 25.2 62.9 74.7 42.4 110.4-20.4 35.7-72.7 44.1-116.7 18.8-44-25.2-63-74.7-42.4-110.4 20.4-35.7 72.6-44 116.7-18.8z" opacity=".5" mask="url(#i)" fill="#030303"/><defs><filter id="j" filterUnits="userSpaceOnUse" x="721.4" y="635.4" width="175.7" height="158.3"><feColorMatrix values="1 0 0 0 0 0 1 0 0 0 0 0 1 0 0 0 0 0 1 0"/></filter></defs><mask maskUnits="userSpaceOnUse" x="721.4" y="635.4" width="175.7" height="158.3" id="m"><g filter="url(#j)"><radialGradient id="k" cx="627.841" cy="804.234" r="91.813" gradientTransform="matrix(.404 -.704 .867 .498 -141.864 755.566)" gradientUnits="userSpaceOnUse"><stop offset="0" stop-color="#595757"/><stop offset="1" stop-color="#020000"/></radialGradient><path d="M846.4 650c43.9 25.2 62.9 74.7 42.4 110.4-20.4 35.7-72.7 44.1-116.7 18.8-44-25.2-63-74.7-42.4-110.4 20.4-35.7 72.6-44 116.7-18.8z" fill="url(#k)"/><radialGradient id="l" cx="627.841" cy="804.234" r="91.813" gradientTransform="matrix(.404 -.704 .867 .498 -141.864 755.566)" gradientUnits="userSpaceOnUse"><stop offset="0" stop-color="#595757"/><stop offset="1" stop-color="#020000"/></radialGradient><path d="M846.4 650c43.9 25.2 62.9 74.7 42.4 110.4-20.4 35.7-72.7 44.1-116.7 18.8-44-25.2-63-74.7-42.4-110.4 20.4-35.7 72.6-44 116.7-18.8z" fill="url(#l)"/></g></mask><path d="M846.4 650c43.9 25.2 62.9 74.7 42.4 110.4-20.4 35.7-72.7 44.1-116.7 18.8-44-25.2-63-74.7-42.4-110.4 20.4-35.7 72.6-44 116.7-18.8z" opacity=".5" mask="url(#m)" fill="#030303"/><defs><filter id="n" filterUnits="userSpaceOnUse" x="729.1" y="657.1" width="149.2" height="134.4"><feColorMatrix values="1 0 0 0 0 0 1 0 0 0 0 0 1 0 0 0 0 0 1 0"/></filter></defs><mask maskUnits="userSpaceOnUse" x="729.1" y="657.1" width="149.2" height="134.4" id="q"><g filter="url(#n)"><radialGradient id="o" cx="613.998" cy="804.266" r="77.954" gradientTransform="matrix(.404 -.704 .867 .498 -141.864 755.566)" gradientUnits="userSpaceOnUse"><stop offset="0" stop-color="#595757"/><stop offset="1" stop-color="#020000"/></radialGradient><path d="M835.2 669.5c37.3 21.4 53.5 63.5 36.1 93.7-17.4 30.2-61.8 37.4-99.1 16s-53.5-63.4-36-93.6c17.3-30.4 61.8-37.6 99-16.1z" fill="url(#o)"/><radialGradient id="p" cx="613.998" cy="804.266" r="77.954" gradientTransform="matrix(.404 -.704 .867 .498 -141.864 755.566)" gradientUnits="userSpaceOnUse"><stop offset="0" stop-color="#595757"/><stop offset="1" stop-color="#020000"/></radialGradient><path d="M835.2 669.5c37.3 21.4 53.5 63.5 36.1 93.7-17.4 30.2-61.8 37.4-99.1 16s-53.5-63.4-36-93.6c17.3-30.4 61.8-37.6 99-16.1z" fill="url(#p)"/></g></mask><path d="M835.2 669.5c37.3 21.4 53.5 63.5 36.1 93.7-17.4 30.2-61.8 37.4-99.1 16s-53.5-63.4-36-93.6c17.3-30.4 61.8-37.6 99-16.1z" opacity=".5" mask="url(#q)" fill="#030303"/><defs><filter id="r" filterUnits="userSpaceOnUse" x="713.5" y="641" width="149.2" height="134.4"><feColorMatrix values="1 0 0 0 0 0 1 0 0 0 0 0 1 0 0 0 0 0 1 0"/></filter></defs><mask maskUnits="userSpaceOnUse" x="713.5" y="641" width="149.2" height="134.4" id="u"><g filter="url(#r)"><radialGradient id="s" cx="621.683" cy="782.703" r="77.933" gradientTransform="matrix(.404 -.704 .867 .498 -141.864 755.566)" gradientUnits="userSpaceOnUse"><stop offset="0" stop-color="#595757"/><stop offset="1" stop-color="#020000"/></radialGradient><path d="M819.6 653.4c37.3 21.3 53.6 63.4 36.1 93.6-17.3 30.3-61.7 37.4-99.1 16-37.3-21.4-53.5-63.4-36.1-93.6 17.4-30.3 61.8-37.5 99.1-16z" fill="url(#s)"/><radialGradient id="t" cx="621.683" cy="782.703" r="77.933" gradientTransform="matrix(.404 -.704 .867 .498 -141.864 755.566)" gradientUnits="userSpaceOnUse"><stop offset="0" stop-color="#595757"/><stop offset="1" stop-color="#020000"/></radialGradient><path d="M819.6 653.4c37.3 21.3 53.6 63.4 36.1 93.6-17.3 30.3-61.7 37.4-99.1 16-37.3-21.4-53.5-63.4-36.1-93.6 17.4-30.3 61.8-37.5 99.1-16z" fill="url(#t)"/></g></mask><path d="M819.6 653.4c37.3 21.3 53.6 63.4 36.1 93.6-17.3 30.3-61.7 37.4-99.1 16-37.3-21.4-53.5-63.4-36.1-93.6 17.4-30.3 61.8-37.5 99.1-16z" opacity=".5" mask="url(#u)" fill="#030303"/><defs><filter id="v" filterUnits="userSpaceOnUse" x="756.2" y="665.2" width="149.2" height="134.4"><feColorMatrix values="1 0 0 0 0 0 1 0 0 0 0 0 1 0 0 0 0 0 1 0"/></filter></defs><mask maskUnits="userSpaceOnUse" x="756.2" y="665.2" width="149.2" height="134.4" id="y"><g filter="url(#v)"><radialGradient id="w" cx="622.059" cy="831.795" r="78.014" gradientTransform="matrix(.404 -.704 .867 .498 -141.864 755.566)" gradientUnits="userSpaceOnUse"><stop offset="0" stop-color="#595757"/><stop offset="1" stop-color="#020000"/></radialGradient><path d="M862.4 677.5c37.4 21.5 53.5 63.4 36 93.8-17.3 30.3-61.8 37.4-99.1 16.1-37.4-21.5-53.5-63.4-36.1-93.8 17.4-30.3 61.9-37.4 99.2-16.1z" fill="url(#w)"/><radialGradient id="x" cx="622.059" cy="831.795" r="78.014" gradientTransform="matrix(.404 -.704 .867 .498 -141.864 755.566)" gradientUnits="userSpaceOnUse"><stop offset="0" stop-color="#595757"/><stop offset="1" stop-color="#020000"/></radialGradient><path d="M862.4 677.5c37.4 21.5 53.5 63.4 36 93.8-17.3 30.3-61.8 37.4-99.1 16.1-37.4-21.5-53.5-63.4-36.1-93.8 17.4-30.3 61.9-37.4 99.2-16.1z" fill="url(#x)"/></g></mask><path d="M862.4 677.5c37.4 21.5 53.5 63.4 36 93.8-17.3 30.3-61.8 37.4-99.1 16.1-37.4-21.5-53.5-63.4-36.1-93.8 17.4-30.3 61.9-37.4 99.2-16.1z" opacity=".5" mask="url(#y)" fill="#030303"/><defs><filter id="z" filterUnits="userSpaceOnUse" x="800.7" y="472.3" width="207.7" height="179.2"><feColorMatrix values="1 0 0 0 0 0 1 0 0 0 0 0 1 0 0 0 0 0 1 0"/></filter></defs><mask maskUnits="userSpaceOnUse" x="800.7" y="472.3" width="207.7" height="179.2" id="B"><g filter="url(#z)"><radialGradient id="A" cx="896.875" cy="687.891" r="108.696" gradientTransform="matrix(.356 -.683 .887 .462 -24.683 856.938)" gradientUnits="userSpaceOnUse"><stop offset="0" stop-color="#4A4848"/><stop offset="1" stop-color="#020000"/></radialGradient><path d="M943.2 487.7c53.2 27.7 79 83.4 57.8 124.5-21.4 40.9-81.9 51.7-135 24.1-53.2-27.9-79-83.5-57.8-124.5 21.2-41 81.8-51.9 135-24.1z" fill="url(#A)"/></g></mask><path d="M943.2 487.7c53.2 27.7 79 83.4 57.8 124.5-21.4 40.9-81.9 51.7-135 24.1-53.2-27.9-79-83.5-57.8-124.5 21.2-41 81.8-51.9 135-24.1z" mask="url(#B)" fill="#fff"/><defs><filter id="C" filterUnits="userSpaceOnUse" x="822.8" y="484" width="173.7" height="149.9"><feColorMatrix values="1 0 0 0 0 0 1 0 0 0 0 0 1 0 0 0 0 0 1 0"/></filter></defs><mask maskUnits="userSpaceOnUse" x="822.8" y="484" width="173.7" height="149.9" id="E"><g filter="url(#C)"><radialGradient id="D" cx="903.463" cy="690.997" r="90.908" gradientTransform="matrix(.356 -.683 .887 .462 -24.683 856.938)" gradientUnits="userSpaceOnUse"><stop offset="0" stop-color="#4A4848"/><stop offset="1" stop-color="#020000"/></radialGradient><path d="M942 496.7c44.5 23.1 66.1 69.7 48.2 104.1-17.7 34.3-68.5 43.4-113 20.1-44.5-23.2-66-69.8-48.2-104.1 17.8-34.1 68.4-43.1 113-20.1z" fill="url(#D)"/></g></mask><path d="M942 496.7c44.5 23.1 66.1 69.7 48.2 104.1-17.7 34.3-68.5 43.4-113 20.1-44.5-23.2-66-69.8-48.2-104.1 17.8-34.1 68.4-43.1 113-20.1z" mask="url(#E)" fill="#fff"/><defs><filter id="F" filterUnits="userSpaceOnUse" x="835.6" y="476.1" width="156.8" height="135.3"><feColorMatrix values="1 0 0 0 0 0 1 0 0 0 0 0 1 0 0 0 0 0 1 0"/></filter></defs><mask maskUnits="userSpaceOnUse" x="835.6" y="476.1" width="156.8" height="135.3" id="H"><g filter="url(#F)"><radialGradient id="G" cx="923.487" cy="687.867" r="82.071" gradientTransform="matrix(.356 -.683 .887 .462 -24.683 856.938)" gradientUnits="userSpaceOnUse"><stop offset="0" stop-color="#4A4848"/><stop offset="1" stop-color="#020000"/></radialGradient><path d="M943.2 487.7c40.2 20.9 59.6 63 43.6 93.9-16.1 30.8-61.8 39.2-102 18.2-40.2-20.9-59.6-63.1-43.6-93.9 16.1-30.9 61.7-39.2 102-18.2z" fill="url(#G)"/></g></mask><path d="M943.2 487.7c40.2 20.9 59.6 63 43.6 93.9-16.1 30.8-61.8 39.2-102 18.2-40.2-20.9-59.6-63.1-43.6-93.9 16.1-30.9 61.7-39.2 102-18.2z" mask="url(#H)" fill="#fff"/><defs><filter id="I" filterUnits="userSpaceOnUse" x="849.1" y="477.5" width="137.1" height="118.3"><feColorMatrix values="1 0 0 0 0 0 1 0 0 0 0 0 1 0 0 0 0 0 1 0"/></filter></defs><mask maskUnits="userSpaceOnUse" x="849.1" y="477.5" width="137.1" height="118.3" id="K"><g filter="url(#I)"><radialGradient id="J" cx="933.832" cy="687.852" r="71.734" gradientTransform="matrix(.356 -.683 .887 .462 -24.683 856.938)" gradientUnits="userSpaceOnUse"><stop offset="0" stop-color="#4A4848"/><stop offset="1" stop-color="#020000"/></radialGradient><path d="M943.2 487.7c35.1 18.2 52.1 54.9 38.1 82.1-14.1 27-54 34.1-89.1 15.9-35.2-18.4-52.2-55.1-38.2-82.2 14.1-27 54.1-34.2 89.2-15.8z" fill="url(#J)"/></g></mask><path d="M943.2 487.7c35.1 18.2 52.1 54.9 38.1 82.1-14.1 27-54 34.1-89.1 15.9-35.2-18.4-52.2-55.1-38.2-82.2 14.1-27 54.1-34.2 89.2-15.8z" mask="url(#K)" fill="#fff"/><defs><filter id="L" filterUnits="userSpaceOnUse" x="833.9" y="491.1" width="119.1" height="102.8"><feColorMatrix values="1 0 0 0 0 0 1 0 0 0 0 0 1 0 0 0 0 0 1 0"/></filter></defs><mask maskUnits="userSpaceOnUse" x="833.9" y="491.1" width="119.1" height="102.8" id="N"><g filter="url(#L)"><radialGradient id="M" cx="912.624" cy="669.111" r="62.357" gradientTransform="matrix(.356 -.683 .887 .462 -24.683 856.938)" gradientUnits="userSpaceOnUse"><stop offset="0" stop-color="#4A4848"/><stop offset="1" stop-color="#020000"/></radialGradient><path d="M915.7 499.9c30.3 15.9 45.3 47.8 33 71.4-12.3 23.4-46.9 29.6-77.6 13.7-30.4-15.8-45.2-47.7-33-71.3 12.3-23.5 47-29.7 77.6-13.8z" fill="url(#M)"/></g></mask><path d="M915.7 499.9c30.3 15.9 45.3 47.8 33 71.4-12.3 23.4-46.9 29.6-77.6 13.7-30.4-15.8-45.2-47.7-33-71.3 12.3-23.5 47-29.7 77.6-13.8z" mask="url(#N)" fill="#fff"/><defs><filter id="O" filterUnits="userSpaceOnUse" x="871.7" y="507.9" width="118.6" height="102.3"><feColorMatrix values="1 0 0 0 0 0 1 0 0 0 0 0 1 0 0 0 0 0 1 0"/></filter></defs><mask maskUnits="userSpaceOnUse" x="871.7" y="507.9" width="118.6" height="102.3" id="Q"><g filter="url(#O)"><radialGradient id="P" cx="916.014" cy="709.992" r="62.034" gradientTransform="matrix(.356 -.683 .887 .462 -24.683 856.938)" gradientUnits="userSpaceOnUse"><stop offset="0" stop-color="#4A4848"/><stop offset=".293" stop-color="#312F2F"/><stop offset=".751" stop-color="#0F0D0D"/><stop offset="1" stop-color="#020000"/></radialGradient><path d="M953.1 516.7c30.3 15.7 45.1 47.6 32.9 71-12.3 23.4-46.6 29.5-76.9 13.8-30.5-16-45.2-47.7-33.1-71.1 12.2-23.4 46.7-29.5 77.1-13.7z" fill="url(#P)"/></g></mask><path d="M953.1 516.7c30.3 15.7 45.1 47.6 32.9 71-12.3 23.4-46.6 29.5-76.9 13.8-30.5-16-45.2-47.7-33.1-71.1 12.2-23.4 46.7-29.5 77.1-13.7z" mask="url(#Q)" fill="#fff"/></g><g clip-path="url(#b)" fill="#fff"><path d="M864.2 520.2c3.4.8 6 4.8 8.4 12.5-3.5-10.8-8.7-12.4-10.9-13l1.3.2c-.6-.1-1.1-.2-1.7-.4l2.9.7M833.5 517.6l-5 .2 1.1-.1c3.5-.1 7.1.3 10.6.1l-.8-.1c-.9.1-3.3-.1-5.9-.1m6.6.7h-.2c4.4.7 16.3 2.6 29.9 13.6l-.1-.1c-17.1-13.9-29.4-13.5-29.6-13.5M779.4 530.4c-2.9 1.4-6.6 3.3-9.4 4.9h.1c4.7-2.7 9.3-4.8 9.3-4.9m2.3-.8l-.4.2c7.7-3.1 15.5-5.4 23.6-6.6 4.3-.6 8.8-1.1 13.1-1.2 2.1-.1 2.1-.1 3.7-.7h-1.1c-22.7-.1-37.2 7.4-38.9 8.3m43.7-7.7c11.9 1.1 24.1 2.1 41.5 9.9-.1 0-.1-.1-.1-.1-21.8-9.6-39.9-10.6-41.4-9.8M703.8 625.3c.5-2.1.7-4.1 1.3-6.1-.8 3.4-1.9 7.9-2.5 11.3-.5 3.6-1.3 8.4-1.6 11.9l.1-.6c.2-3.2.8-8.9 2.7-16.5m2.6-9.6l-.1.7c1.6-4.9 5.6-16.4 15-29.9 1.7-2.5 4-4.5 5.4-7.2.9-1.6.6-3.3 1.1-4.9l-.7.9c-8.9 11-15.3 22.8-19.7 36l-.1.6c-.3.7-.7 2-.9 3.8m25-42.3c0 .1-.1.4-.1.6 6.7-7.3 16.6-16.9 33.1-26.4.2-1.2.4-2 .8-3.2-.4.2-.9.4-1.2.6-8.9 4.8-15.7 9.6-23.1 16-9.1 7.9-9.1 8.1-9.5 12.4m39.3-29.5v.4c19.5-9.7 36.1-12.4 41.6-13.2.1-.6.1-.7.4-1.2-.4.1-.8.1-1.1.1-14.6 1.9-27.4 5.6-40.3 11.4-.2.5-.4 1.2-.6 2.5m48.7-14c18-.7 27.9-1.1 45.6 2.8-.1 0-.1 0-.1-.1-22.2-5.1-39-3.9-45.3-3.6-.1.4-.1.6-.2.9M727.6 736.3c-.6-.9-1.4-1.8-2.1-2.7l4 5.4 1.1 1.4-.8-1c-1.2-1.6-1.4-2-2.2-3.1m-14.5-35.8c-.1-.6 0-1.5-.3-2.1-1.1-2-2.8-3.6-4.1-5.6l.4 2.1c4.3 21.2 12.4 32.5 14.8 35.5-2-3.3-8.2-13.9-10.8-29.9m2.3-45.6l.5-2c-1.9-2.4-3.1-4-4.6-6.4l-.5 2c-1.1 4.4-3.8 16.1-3.4 30.4.2 7.1.2 7.1 4.6 12.4-.3-4.4-1.2-18 3.4-36.4m2.2-10.8l.6.8c4.6-13.7 10.5-25.4 18.9-37.9-1.8-2.2-2.7-3.6-4.1-5.8l-.6.9c-10.9 15.2-16 28.1-18.9 36.6.8 1 2.1 2.9 4.1 5.4m24.1-44.7c.1.2.4.5.6.6 3.9-5.1 13.1-17.1 29.9-30.7-1.1-1.4-1.8-2.4-2.7-3.8-.4.2-.8.6-1.1.9-11.6 8.5-20.7 17-30.1 28.4.5.8 1.6 2.4 3.4 4.6m36.9-35.7c.1.1.2.3.4.4 17.6-12.7 32.4-18.4 37.2-20.4l-1-1.5c-.3.1-.7.2-1 .4-13.6 4.6-25.6 10.4-37.8 18.1.4.7 1.1 1.7 2.2 3m45.3-22.8c21-4.9 21-4.9 23.6-5.3 3.9-.6 10.1-1.2 17-1.1h.4c-20.3-.2-35.9 3.9-41.8 5.5.3.3.5.5.8.9M751.9 756.7c0-.1-.1-.1-.1-.1l-4.9-3.2.1.2c5.9 9.4 11.7 13.2 17.4 16.9h-.1c-1.9-1.3-7.7-5.1-12.4-13.8m-6.9-29.6v-1.8c-3.1-1.9-5-3.1-7.9-5.1.1.6.1 1.3.1 1.9.9 9.3 2.6 16.1 5.4 23.1 1.4 3.4 1.4 3.4 6.9 6.8-2.7-7.4-4.3-15.8-4.5-24.9m5.7-42.7c.1-.6.4-1.4.6-1.9-3.6-2.2-5.8-3.7-9.1-6l-.5 2c-1.3 5.1-4.7 19-4.8 34.8 3 2 5 3.3 8.2 5.3.3-4.6.8-16.7 5.6-34.2m2-11.5c.4.2.9.5 1.2.7 4.4-13.8 9.2-25.1 16.3-39-3.2-2-5.2-3.4-8.1-5.4l-.5.9c-10.2 18.1-15 32.3-16.8 37.6 1.3 1 4.1 2.9 7.9 5.2m20.9-47.3l1 .6c3.1-5.5 10.3-18.4 23.1-35-2.1-1.4-3.4-2.2-5.4-3.6l-.9 1c-6.5 7.3-14.6 16.8-24.7 32.6 1.4.9 3.7 2.4 6.9 4.4m29.3-41.8l.6.4c8.8-10.4 18-19.6 27.5-27.2l-2.1-1.4-.7.5c-13.9 9.7-23.5 18.9-29.6 25.1.8.4 2.3 1.4 4.3 2.6m34.3-31.9c.1.1.1.1.2.1 7.1-5 16.8-11.4 29.5-15.5l-.9.2c-12.9 4.1-22.9 9.8-30.2 14.3.2.2.7.5 1.4.9M787.7 773.9v-.1l-6.4-2.4v.1c.6 3.6 1.6 6.1 2.9 8.1 1.2 1.7 1.5 1.9 5 3.1-1.2-1.1-1.8-4.1-1.5-8.8m4.2-24.5l.4-1.6c-3.9-1.4-6.4-2.4-10.3-3.9l-.2 1.6c-1.5 12.5-1.2 17.8-.9 21.9 2.7 1.1 4.4 1.7 7.2 2.7.5-4.2 1.5-11.2 3.8-20.7m10.7-40.6c.1-.6.4-1.5.6-2-4.6-1.7-7.6-2.7-12.1-4.5-.1.6-.4 1.4-.6 1.9-3.5 12.6-6.1 23.9-7.6 32.9 4.1 1.6 6.7 2.6 10.9 4.1 2.1-7.9 4.3-17.1 8.8-32.4m1.8-11.4c.4.1 1.1.4 1.6.6 5.1-16.9 8.7-27.7 12.9-40.1-4.1-1.5-6.8-2.5-10.9-4.1-.1.3-.3.6-.4 1-3.3 8.4-8.4 21.8-13.7 38.8 2 .5 5.6 2 10.5 3.8m16.4-49.4l1.3.5c2.6-7.6 6.2-18.1 14.1-38.8-2.8-1-4.5-1.7-7.2-2.8-.1.4-.4.9-.6 1.1-2.6 5.3-8.1 16.2-16.6 36.4 1.6.8 4.8 2 9 3.6m17.9-47.1l.8.3c3.4-8.6 8.7-21.4 14.2-33.1l-2.8-1.1c-.1.2-.3.5-.4.6-8.9 14.6-14.4 25.4-17.4 31.1 1 .4 3 1.2 5.6 2.2m17.9-39.6l.3.1c3.4-6.8 8.1-15.6 13.4-22.9l-.4.5c-6.2 8-11.3 15.8-15.1 21.7.9.2 1.5.4 1.8.6M829.9 784.9c-.1-.1-.2-.1-.4-.1-2.1-.4-3.7-.6-6.4-1.1-5.2 5.9-8.6 5.8-9.8 5.8 3.9.6 8.8 1.4 16.6-4.6m17.1-21.4l.9-1.4-.7-.1c-3.5-.6-5.9-.9-10.4-1.8-1.8 4.1-5.6 12.6-11.1 20.3l7.8 1.4c1.9-2.2 6.7-6.8 13.5-18.4m16.6-39.5c.2-.6.4-1.5.6-2-.2-.1-.6-.1-.8-.1-4.1-.6-6.9-1.1-12.1-2.1-5.1 16.8-8.8 26.6-11.8 33.9 3.9.7 7.9 1.4 11.7 2 2.9-6.1 7.5-16.9 12.4-31.7m2.6-10.7c.2.1.6.1.8.1 3.8-13.6 6.9-27.5 9.1-41l-.7-.1c-3.7-.6-6.2-1-10.9-1.9-2.7 12.1-5.4 23.6-10.4 40.7 5.7 1.2 10.4 1.8 12.1 2.2m10.7-50.9c.2 0 .5.1.6.1 3-22 3.6-34.4 3.9-41l-.5-.1c-2.4-.4-3.8-.6-7.3-1.3-3.1 21-5.9 34.6-7.1 40.4 5.2 1.1 9.6 1.8 10.4 1.9m4.5-50.5l.4.1c.1-5.8.4-19.2-1.1-36.6l-3-.5v.8c-.4 13.4-1.6 26.5-2.7 35.2 3.3.5 6.4 1 6.4 1m-1.6-44.5h.1c-1.3-11.1-2.9-19.6-5.1-27.7l.1.6c2.3 9.5 2.7 19.3 2.9 26.7.7.1 2 .4 2 .4M867.2 786.5l.2-.1-.6.1c-4.9.4-4.9.4-6.1.9-5.5 2.4-10.6 3.6-16.4 3.9l5.2-.4 1.1-.1c2.6-.3 8.8-1 16.6-4.3m28.3-21.1c.4-.4.9-1 1.2-1.4-.3 0-.7.1-1.1.1-2.8.3-4.6.4-7.6.5-2.9 3.7-9.5 12.4-20.7 19.4 6.4-.3 6.4-.3 11.1-3.4 6.1-4 11.9-9.2 17.1-15.2m22-39.3c.2-.6.4-1.4.6-1.9-.4.1-.9.1-1.2.1-3.3.3-5.4.4-8.9.6-4.4 13.1-9.4 23.5-15.9 33.5 3.6-.1 5.6-.3 8.9-.6 6.4-9.1 12.4-20 16.5-31.7m1.9-10.5c.4 0 .9-.1 1.2-.1 1.4-5.5 5.2-20.2 5.9-41.1-.4 0-.8.1-1.1.1-3 .3-4.9.4-8 .6-1.1 15.1-3.2 27.4-6.9 41.1 1.6-.1 4.9-.2 8.9-.6m6.1-50.9c.3 0 .7-.1 1.1-.1-.5-19-2.9-31.6-5-41.5l-.7.1-5.3.4c3 20.7 2.6 35.4 2.4 41.6 1.2-.1 4.1-.2 7.5-.5m-7-50.8l.6-.1c-2.4-8.5-6.4-21.6-14.4-37.4h-.3c-.7.1-1.3.1-2.1.1 4.9 11.5 8.7 24.1 11.4 37.5 1 .1 2.7 0 4.8-.1m-18.1-45.3h.2c-4.6-7.8-11.2-18.1-21.9-28.7 5.7 6.2 12.1 13.2 20.1 28.9.8-.2 1.3-.2 1.6-.2M928.9 755.6l1.5-1.6-.6.4c-5.2 3.1-5.2 3.1-6.1 4-3.6 3.7-7.5 7.1-11.6 10.2-6.9 5.1-12.5 7.9-14.9 9.1 5.4-2.6 8.8-4.6 13.9-7.8l.3-.1c2.6-1.8 9.7-6.4 17.5-14.2m25-40c.2-.6.5-1.4.7-1.9l-.7.4c-1.9 1.1-3.2 1.9-5.4 2.9-3.1 8.9-7.9 20.8-18.1 33.8 5.9-2.7 5.9-2.7 11.1-10.6 1.8-2.8 7.6-11.5 12.4-24.6m2.5-10.2c1.3-.8 5.9-19 4.5-41.4l-.6.4c-1.7 1.1-2.9 1.7-4.8 2.6.5 14.7-.9 27.4-4.4 41.1 1-.4 3-1.3 5.3-2.7m3-49.9l.6-.4c-2-14.4-5.4-26.8-11.1-40.1l-.4.3c-1.1.7-1.9 1.1-3.1 1.8 7.4 19.9 8.9 34.6 9.5 40.8.8-.5 2.5-1.3 4.5-2.4m-14.8-48.6l.4-.2c-6.4-12.7-14.1-24.1-23.6-35-.1 0-.1.1-.1.1-.4.3-.7.4-1.2.7 3.3 4.1 13.2 16.4 21.8 35.9.5-.3 1.5-.8 2.7-1.5m-29.7-41.9c-.1-.1-12.1-13.6-33.6-25.9 9.4 5.6 19.6 12.4 32.6 26.4.3-.1.6-.3 1-.5M973.4 670.1c.4-4.4.8-10.1.9-14.6v-.4c0-3.6-.1-6.8-.6-12.1v.6c-.4 7.1-.4 7.1-.2 8.6.5 8.1.1 14.2-.1 16.2-.6 8.6-2.2 15.4-2.9 18.3.9-5 2.4-11.6 2.9-16.6m-.8-34.1c0-.1-1.6-16.6-13.4-37.6v.4c-.1 1-.7 1.9-.4 2.9 1.4 3.9 3.7 7.3 5.3 11 5.4 12.8 7.1 22.5 7.9 27.2.2-.5.5-2 .6-3.9m-17.5-43.7c0-.1-8.2-14.9-27.5-30.4v.1c0 .5-.1.7-.1 1.1 4 3.4 16.3 13.9 27.2 31.6.2-.4.4-1.3.4-2.4m-34-35.2c-2.6-2-16.6-12.2-39.1-19.7 23.9 10.1 25.9 10.9 38.9 20.5.1-.2.2-.5.2-.8M945.1 570.1l-3.9-4.8-.6-.7c-4.1-4.6-9.6-10.1-18.9-15.9.1.1.1.1.1.2 2.7 3.2 6.6 4.9 9.7 7.6 6.1 4.9 11.4 10.6 16.1 16.9-.7-1-1.7-2.3-2.5-3.3m-28.1-23.9c-.1-.1-13.3-8.1-36.3-10.8 13.5 2.4 22.4 3.9 37.1 11.8-.3-.3-.5-.6-.8-1M909.4 538.1l-1.2-.8-.3-.2c-.9-.5-1.1-.6-2.1-1.1.1.1.2.1.3.1 1.8 1.1 3.7 2.1 5.5 3.3-.7-.4-1.6-1-2.2-1.3m-5.8-3c-.1-.1-8.6-4.7-25.6-1.4 10-1.1 16.6-1.9 27.1 2.3-.4-.2-.8-.5-1.5-.9M883.2 525.5c-1.1-.4-3 .2-8.4 7.3 4.1-4.4 4.1-4.4 5.5-5.4 2.2-1.4 3.6-1.5 4.9-1.1-.3-.2-1.1-.5-2-.8M865.6 520.5l.2.1c2.6.6 6.1 1.4 8.7 2.1 5.7 1.7 5.7 1.7 8.5 2.7 5.6 2.1 5.6 2.1 8.4 3.3l1.7.7c33.7 15.4 45 36.6 23.5 44.6-36.6 13.6-115.1-20.7-103.7-45.3 4.6-9.9 24.6-13.4 49.7-8.8-31.9-5.9-51.1 3.2-40.3 19 8.4 12.2 32.1 24.1 56.5 28.3 30.9 5.4 50-4.1 39.3-19.5-6.5-9.3-25.2-21.4-52.4-27.1l-.1-.1M954.4 583.4c22.2 38.6-36.4 49.9-99.9 32.1-71.3-19.9-112.6-64.6-77.5-83.9 1-.6 1.9-1 2.4-1.2l.1-.1 6.1-2.6c-31.9 13.5-9.9 47.6 45.4 70.1 10.4 4.2 27.1 10 47.4 13.6 57.1 9.9 90.9-7 71.1-35.4 0 0 0-.1-.1-.1l5 7.5M973.5 640c3 56.9-155.3 41.4-225.9-22.1-12.1-11-30.4-32.2-15.4-51.4l4.8-5.4c-27.5 30.5 45.6 85 135 100.5 61.8 10.7 104.9-2.5 100.1-30.7l1.4 9.1M968.5 693.9l-1.6 4.9c-22.9 58.5-229.3 11-259.7-59.8-3-7-3.8-13.7-2.2-19.9l1.1-4 1.2-3.9c-10.2 35.8 65.7 85.9 153.2 101.1 58.1 10.1 102.1.7 109.2-23.1l-1.2 4.7M936.5 749.1c-44.7 43.9-221.9-10-234.1-71.1l-1.2-8.5c6.5 38.3 79.9 74.1 144.2 85.3 46.6 8 84.1 2.9 97.8-13.2l-6.7 7.5M895.1 778.6c-2.6 1.1-5.9 2.6-8.6 3.6-43.7 15.7-134.1-11.6-161.1-48.7-1.6-2.5-3.9-5.8-5.5-8.4 15.4 24 61.5 47.5 109.5 55.9 28.4 4.9 53 3.6 67.7-3.4l-2 1M818.6 790.2c-6.4-1-6.4-1-9.6-1.6-6-1.4-6-1.4-8.9-2.2-5.7-1.7-5.7-1.7-8.5-2.7-5.6-2.1-5.6-2.1-8.4-3.3-5.6-2.6-5.8-2.6-8.6-4.1l-.8-.4c15.8 8.2 31.1 12 41.1 13.7 4.2.7 6.8 1 8.9 1.2-1.6-.2-3.7-.4-5.2-.6"/></g></g><linearGradient id="R" gradientUnits="userSpaceOnUse" x1="837.25" y1="691.567" x2="837.25" y2="547.472"><stop offset="0" stop-color="#fff"/><stop offset=".039" stop-color="#FCFDFE"/><stop offset=".297" stop-color="#ECF5F8"/><stop offset=".591" stop-color="#E3F0F5"/><stop offset="1" stop-color="#E0EEF4"/></linearGradient><path d="M787.9 650.9c-54.9-27.5-119.8-46.5-152.7-103.5 3.7 18.6 9.3 34.7 16.3 48.6 53.9 30.8 102.9 46.7 136.4 54.9zm29.7 16.9c-7.8-5.1-16.1-9.8-24.7-14.2-31.6-4.5-81-16-134.4-44.9 6.9 11.1 14.8 20.6 23.4 28.7 35.1 14.6 101.2 26.5 135.7 30.4zm205.5-71.7c7-13.9 12.6-30 16.3-48.6-32.9 57-97.8 75.9-152.7 103.5 33.4-8.3 82.4-24.2 136.4-54.9zm-326.1 53.6c51.1 36.9 108 42 140.5 41.9.7-8.2-4.8-16.9-14.2-19.2-28.7-6.5-88.1-10.4-126.3-22.7zm184.6 3.8c-8.6 4.4-16.8 9.1-24.7 14.2 34.4-3.9 100.5-15.8 135.7-30.5 8.6-8.1 16.5-17.6 23.4-28.7-53.4 29-102.8 40.5-134.4 45zm-30.4 18.9c-9.7 2.3-13.9 9.1-13.7 19.2 33.8-1 88.9-4.9 140-41.9-38.2 12.3-97.6 16.2-126.3 22.7z" fill="url(#R)" stroke="#E0EEF4" stroke-miterlimit="10"/><g><path d="M714.6 829.8v4.3c-3.4-1.9-6.7-2.9-9.9-2.9-2.2 0-4.2.5-5.9 1.5s-3.1 2.4-4 4.1c-.9 1.7-1.4 3.5-1.4 5.4 0 1.9.5 3.7 1.4 5.3.9 1.7 2.2 3 3.9 4 1.7 1 3.7 1.5 6 1.5 3.6 0 7-1.1 10.3-3.2v4.5c-3.1 1.7-6.6 2.5-10.4 2.5-3.3 0-6.2-.7-8.5-2.2-2.3-1.5-4.1-3.3-5.2-5.5-1.1-2.2-1.7-4.5-1.7-6.9 0-2.7.7-5.3 2.1-7.5 1.4-2.3 3.3-4 5.6-5.3s5-1.9 7.8-1.9c3 0 6.4.8 9.9 2.3zM723.6 831.9c0 .6-.2 1.1-.7 1.5-.4.4-1 .7-1.6.7s-1.1-.2-1.5-.7c-.4-.5-.6-1-.6-1.5s.2-1.1.6-1.5c.4-.5.9-.7 1.5-.7s1.1.2 1.6.7.7.9.7 1.5zm-4.1 24.6v-18.9h3.7v18.9h-3.7zM744.5 847v.4h-13.3c.1 1.8.7 3.2 1.8 4.3 1.1 1.1 2.5 1.6 4.3 1.6 1.2 0 2.4-.2 3.6-.6 1.2-.4 2.3-1 3.3-1.7v3.7c-1.2.8-2.4 1.4-3.5 1.7-1.2.3-2.4.5-3.8.5-1.7 0-3.3-.4-4.7-1.2-1.4-.8-2.6-2-3.4-3.5-.8-1.5-1.3-3.3-1.3-5.3 0-1.8.4-3.5 1.1-4.9.7-1.5 1.8-2.6 3.1-3.5 1.3-.8 2.9-1.3 4.6-1.3 1.6 0 3 .4 4.2 1.2 1.3.8 2.2 1.9 2.9 3.4.8 1.5 1.1 3.2 1.1 5.2zm-8.2-6.5c-1.3 0-2.4.4-3.4 1.3-.9.9-1.4 2-1.6 3.3h9.5c-.1-1.4-.5-2.6-1.3-3.4-.8-.8-1.8-1.2-3.2-1.2zM748.8 856.5v-28.7h3.7v28.7h-3.7zM781.6 831.5v25h-4.1v-25h-9.8v-3.6h23.9v3.6h-10zM806 847v.4h-13.3c.1 1.8.7 3.2 1.8 4.3 1.1 1.1 2.5 1.6 4.3 1.6 1.2 0 2.4-.2 3.6-.6 1.2-.4 2.3-1 3.3-1.7v3.7c-1.2.8-2.4 1.4-3.5 1.7-1.2.3-2.4.5-3.8.5-1.7 0-3.3-.4-4.7-1.2-1.4-.8-2.6-2-3.4-3.5-.8-1.5-1.3-3.3-1.3-5.3 0-1.8.4-3.5 1.1-4.9.7-1.5 1.8-2.6 3.1-3.5 1.3-.8 2.9-1.3 4.6-1.3 1.6 0 3 .4 4.2 1.2 1.3.8 2.2 1.9 2.9 3.4.8 1.5 1.1 3.2 1.1 5.2zm-8.2-6.5c-1.3 0-2.4.4-3.4 1.3-.9.9-1.4 2-1.6 3.3h9.5c-.1-1.4-.5-2.6-1.3-3.4-.7-.8-1.8-1.2-3.2-1.2zM823.9 838.6v4c-1-.6-1.8-1.1-2.7-1.3-.8-.3-1.7-.4-2.6-.4-1.2 0-2.2.3-3.1.9-.9.6-1.5 1.4-2 2.3-.5.9-.7 2-.7 3.1 0 1.7.5 3.1 1.5 4.4s2.6 1.9 4.9 1.9c.9 0 1.7-.1 2.5-.3.8-.2 1.6-.5 2.5-.9v3.7c-1.8.7-3.7 1.1-5.5 1.1-2.3 0-4.1-.5-5.6-1.4-1.5-1-2.5-2.2-3.1-3.6-.6-1.5-1-2.9-1-4.4 0-2.1.4-3.8 1.2-5.4.8-1.5 1.9-2.7 3.3-3.5 1.4-.8 3-1.2 4.8-1.2.9 0 1.8.1 2.7.3.9-.1 1.8.2 2.9.7zM844.5 844.7v11.8h-3.7v-11.7c0-2.9-1.2-4.4-3.7-4.4-.9 0-1.7.2-2.4.6-.7.4-1.5 1.1-2.3 2v13.5h-3.7v-28.7h3.7v12.3c.8-.9 1.7-1.6 2.7-2.1 1-.5 2.1-.7 3.1-.7 2.1 0 3.7.7 4.7 2 1.1 1.3 1.6 3.1 1.6 5.4zM865.6 845.1v11.4h-3.7v-11.3c0-3.2-1.3-4.8-3.9-4.8-.9 0-1.7.2-2.5.7-.8.5-1.5 1.1-2 1.9v13.5h-3.7v-18.9h3.7v2.4c.8-.9 1.7-1.6 2.8-2.1 1-.5 2-.7 3-.7 2 0 3.6.7 4.7 2.1 1.1 1.4 1.6 3.3 1.6 5.8z"/><path d="M889.8 847.1c0 2.2-.5 4-1.5 5.4-1 1.5-2.3 2.6-3.8 3.3-1.5.7-3.1 1.1-4.7 1.1-2.1 0-3.9-.5-5.4-1.4-1.5-.9-2.7-2.2-3.4-3.7-.8-1.5-1.1-3-1.1-4.6 0-1.9.4-3.6 1.3-5.1.8-1.5 2-2.7 3.6-3.6 1.5-.9 3.3-1.3 5.3-1.3 1.9 0 3.6.4 5.1 1.2 1.5.8 2.7 2 3.6 3.5.6 1.6 1 3.3 1 5.2z" fill="#D93C3C"/><path d="M894.1 856.5v-28.7h3.7v28.7h-3.7zM922.2 847.1c0 2.2-.5 4-1.5 5.4-1 1.5-2.3 2.6-3.8 3.3-1.5.7-3.1 1.1-4.7 1.1-2.1 0-3.9-.5-5.4-1.4-1.5-.9-2.7-2.2-3.4-3.7-.8-1.5-1.1-3-1.1-4.6 0-1.9.4-3.6 1.3-5.1.8-1.5 2-2.7 3.6-3.6 1.5-.9 3.3-1.3 5.3-1.3 1.9 0 3.6.4 5.1 1.2 1.5.8 2.7 2 3.6 3.5.6 1.6 1 3.3 1 5.2zm-16.3 0c0 2 .6 3.5 1.8 4.7s2.7 1.7 4.5 1.7c1.8 0 3.3-.6 4.5-1.8 1.1-1.2 1.7-2.8 1.7-4.6 0-2.1-.6-3.7-1.9-4.8s-2.8-1.6-4.6-1.6c-1.8 0-3.2.6-4.4 1.8s-1.6 2.6-1.6 4.6zM939.5 844.6c0 1.7-.5 3.1-1.5 4.1-1 1-2.4 1.7-4.1 2-.3.1-.8.2-1.5.3s-1.3.3-1.7.5c-.4.2-.6.5-.6.9 0 .5.4.9 1.3 1.3s2.1.7 3.6.9c4.2.7 6.3 2.5 6.3 5.5 0 1.8-.8 3.3-2.4 4.3-1.6 1.1-3.8 1.6-6.5 1.6-2.9 0-5-.5-6.5-1.6s-2.2-2.4-2.2-4.1c0-1.3.3-2.4 1-3.3.7-.9 1.9-1.5 3.7-1.9-1.3-.8-1.9-1.6-1.9-2.4 0-1.3 1-2.2 3-2.8-2.8-1.1-4.2-3.1-4.2-5.9 0-2 .7-3.6 2.2-4.8 1.5-1.2 3.6-1.8 6.3-1.8h7.5v2.9h-3.9c1.5 1.2 2.1 2.6 2.1 4.3zm-7 18.6c1.7 0 3-.2 3.9-.7.9-.5 1.4-1.2 1.4-2.1 0-1-.6-1.7-1.7-2.2s-2.6-.8-4.5-.8c-1.2 0-2.2.3-3 .8-.8.5-1.2 1.2-1.2 2.1 0 .9.4 1.6 1.3 2.1.8.6 2.1.8 3.8.8zm0-15.4c1.1 0 2-.3 2.7-.9s1-1.5 1-2.6c0-.9-.3-1.7-1-2.4s-1.6-1-2.6-1-1.9.3-2.6 1-1 1.5-1 2.5c0 1.1.4 1.9 1.1 2.5s1.4.9 2.4.9zM948.5 831.9c0 .6-.2 1.1-.7 1.5-.4.4-1 .7-1.6.7s-1.1-.2-1.5-.7c-.4-.5-.6-1-.6-1.5s.2-1.1.6-1.5c.4-.5.9-.7 1.5-.7s1.1.2 1.6.7.7.9.7 1.5zm-4.1 24.6v-18.9h3.7v18.9h-3.7zM969.4 847v.4h-13.3c.1 1.8.7 3.2 1.8 4.3 1.1 1.1 2.5 1.6 4.3 1.6 1.2 0 2.4-.2 3.6-.6 1.2-.4 2.3-1 3.3-1.7v3.7c-1.2.8-2.4 1.4-3.5 1.7-1.2.3-2.4.5-3.8.5-1.7 0-3.3-.4-4.7-1.2-1.4-.8-2.6-2-3.4-3.5-.8-1.5-1.3-3.3-1.3-5.3 0-1.8.4-3.5 1.1-4.9.7-1.5 1.8-2.6 3.1-3.5 1.3-.8 2.9-1.3 4.6-1.3 1.6 0 3 .4 4.2 1.2 1.3.8 2.2 1.9 2.9 3.4.8 1.5 1.1 3.2 1.1 5.2zm-8.3-6.5c-1.3 0-2.4.4-3.4 1.3-.9.9-1.4 2-1.6 3.3h9.5c-.1-1.4-.5-2.6-1.3-3.4-.7-.8-1.8-1.2-3.2-1.2zM978.8 837.3c1.9 0 3.8.5 5.7 1.6v3.7c-1.1-.7-2.1-1.2-3-1.5-.8-.3-1.7-.5-2.5-.5s-1.4.1-1.8.4c-.4.3-.6.6-.6 1s.1.7.2.9c.2.3.5.6 1 1s1.4.9 2.5 1.5c1.5.9 2.8 1.8 3.7 2.7.9.9 1.4 2 1.4 3.4 0 .8-.2 1.6-.7 2.5-.4.8-1.1 1.5-2.1 2.1-1 .6-2.2.8-3.7.8-1.1 0-2-.1-2.9-.3-.9-.2-2-.7-3.4-1.4v-4c.9.7 1.9 1.3 3 1.8s2.1.7 3 .7c1 0 1.7-.2 2.2-.5.5-.3.7-.8.7-1.3 0-.4-.1-.8-.3-1.1-.2-.3-.6-.6-1.2-1l-3-1.9c-1.4-.9-2.5-1.7-3.2-2.6-.7-.9-1.1-1.9-1.1-3.1 0-1.4.6-2.6 1.7-3.5 1.3-1 2.7-1.4 4.4-1.4z"/></g></svg>